<svg version="1.1" viewBox="0.0 0.0 960.0 864.0" fill="none" stroke="none" stroke-linecap="square" stroke-miterlimit="10" xmlns:xlink="http://www.w3.org/1999/xlink" xmlns="http://www.w3.org/2000/svg"><clipPath id="p.0"><path d="m0 0l960.0 0l0 864.0l-960.0 0l0 -864.0z" clip-rule="nonzero"/></clipPath><g clip-path="url(#p.0)"><path fill="#ffffff" d="m0 0l960.0 0l0 864.0l-960.0 0z" fill-rule="evenodd"/><path fill="#f4cccc" d="m363.03937 85.562996l233.92126 0l0 42.015747l-233.92126 0z" fill-rule="evenodd"/><path fill="#000000" d="m390.671 99.27987l0 13.203125l-1.34375 0l0 -13.203125l1.34375 0zm7.331482 4.25q1.640625 0 2.453125 0.875q0.828125 0.875 0.828125 2.46875l0 5.609375l-1.234375 0l0 -4.921875q0 -1.484375 -0.546875 -2.1875q-0.53125 -0.71875 -1.75 -0.71875q-1.1875 0 -1.953125 0.921875q-0.765625 0.90625 -0.765625 2.5l0 4.40625l-1.234375 0l0 -6.890625q0 -1.0625 -0.09375 -1.84375l1.265625 0q0.0625 0.53125 0.0625 1.40625l0.03125 0q0.40625 -0.734375 1.234375 -1.171875q0.828125 -0.453125 1.703125 -0.453125zm10.826019 0q2.0 0 3.328125 1.296875q1.328125 1.296875 1.328125 3.296875q0 1.984375 -1.328125 3.28125q-1.3125 1.296875 -3.328125 1.296875q-0.984375 0 -1.921875 -0.4375q-0.921875 -0.453125 -1.46875 -1.234375l-0.03125 0l0 6.828125l-1.234375 0l0 -14.109375l1.234375 0l0 1.453125l0.03125 0q0.546875 -0.78125 1.46875 -1.21875q0.921875 -0.453125 1.921875 -0.453125zm-3.484375 4.59375q0 1.453125 1.0 2.46875q1.0 1.0 2.484375 1.0q1.484375 0 2.390625 -0.984375q0.921875 -0.984375 0.921875 -2.484375q0 -1.546875 -0.953125 -2.5q-0.9375 -0.96875 -2.375 -0.96875q-1.484375 0 -2.484375 1.0q-0.984375 1.0 -0.984375 2.46875zm11.461456 -4.375l0 4.921875q0 1.515625 0.546875 2.21875q0.546875 0.703125 1.796875 0.703125q1.140625 0 1.90625 -0.921875q0.765625 -0.9375 0.765625 -2.359375l0 -4.5625l1.234375 0l0 6.890625q0.03125 1.046875 0.09375 1.84375l-1.265625 0q-0.0625 -0.703125 -0.0625 -1.40625l-0.03125 0q-0.46875 0.765625 -1.296875 1.203125q-0.8125 0.421875 -1.640625 0.421875q-1.703125 0 -2.5 -0.90625q-0.78125 -0.921875 -0.78125 -2.421875l0 -5.625l1.234375 0zm11.138519 -2.453125l0 2.453125l2.515625 0l0 1.125l-2.515625 0l0 5.21875q0 0.71875 0.265625 1.109375q0.265625 0.390625 1.0 0.390625q0.640625 0 1.265625 -0.34375l0.0625 1.140625q-0.734375 0.3125 -1.671875 0.3125q-1.015625 0 -1.59375 -0.59375q-0.5625 -0.59375 -0.5625 -1.65625l0 -5.578125l-1.84375 0l0 -1.125l1.84375 0l0 -2.453125l1.234375 0zm10.895935 -2.921875l0 14.109375l-1.234375 0l0 -14.109375l1.234375 0zm6.5868835 5.15625q1.5 0 2.34375 0.84375q0.859375 0.828125 0.859375 2.203125l0 4.046875q0 0.859375 0.15625 1.859375l-1.203125 0q-0.109375 -0.578125 -0.109375 -1.421875l-0.03125 0q-0.546875 0.859375 -1.28125 1.25q-0.734375 0.390625 -1.796875 0.390625q-1.34375 0 -2.1875 -0.703125q-0.828125 -0.703125 -0.828125 -1.84375q0 -1.578125 1.3125 -2.296875q1.328125 -0.734375 4.171875 -0.734375l0.5625 0l0 -0.1875q0 -1.1875 -0.546875 -1.734375q-0.546875 -0.546875 -1.6875 -0.546875q-1.53125 0 -2.671875 1.015625l-0.75 -0.875q1.234375 -1.265625 3.6875 -1.265625zm-2.734375 6.453125q0 0.75 0.5625 1.1875q0.578125 0.421875 1.5 0.421875q1.1875 0 1.90625 -0.734375q0.734375 -0.75 0.734375 -2.25l0 -0.46875l-0.859375 0q-1.75 0 -2.796875 0.453125q-1.046875 0.4375 -1.046875 1.390625zm9.291962 -6.234375l2.75 7.21875l2.65625 -7.21875l1.5 0l-4.25 10.75q-0.5 1.3125 -1.140625 1.890625q-0.640625 0.578125 -1.734375 0.578125q-0.59375 0 -1.125 -0.140625l0.140625 -1.1875q0.40625 0.203125 0.921875 0.203125q1.09375 0 1.59375 -1.34375l0.71875 -1.90625l-3.578125 -8.84375l1.546875 0zm12.42981 -0.21875q1.921875 0 3.0625 1.265625q1.140625 1.25 1.140625 3.28125l0 0.375l-7.28125 0q0.140625 1.359375 1.03125 2.25q0.90625 0.890625 2.171875 0.890625q0.84375 0 1.59375 -0.40625q0.765625 -0.40625 1.203125 -1.109375l0.953125 0.78125q-1.484375 1.84375 -3.75 1.84375q-1.9375 0 -3.234375 -1.296875q-1.28125 -1.3125 -1.28125 -3.28125q0 -1.921875 1.265625 -3.25q1.28125 -1.34375 3.125 -1.34375zm2.859375 3.921875q0 -1.296875 -0.78125 -2.046875q-0.78125 -0.75 -2.0625 -0.75q-1.140625 0 -2.078125 0.828125q-0.9375 0.828125 -0.984375 1.96875l5.90625 0zm7.6853943 -3.921875q0.484375 0 0.90625 0.109375l-0.234375 1.21875q-0.21875 -0.09375 -0.703125 -0.09375q-1.171875 0 -1.953125 0.8125q-0.765625 0.8125 -0.765625 2.0625l0 4.84375l-1.234375 0l0 -6.0625q-0.015625 -1.5625 -0.0625 -2.671875l1.203125 0l0 1.625l0.046875 0q0.71875 -1.84375 2.796875 -1.84375zm10.63031 -4.140625q-1.421875 2.34375 -1.953125 3.984375q-0.515625 1.640625 -0.515625 3.734375q0 1.9375 0.4375 3.515625q0.4375 1.5625 1.953125 4.09375l-0.984375 0.75q-1.25 -1.75 -1.953125 -3.953125q-0.6875 -2.21875 -0.6875 -4.40625q0 -2.203125 0.703125 -4.375q0.703125 -2.171875 2.015625 -3.984375l0.984375 0.640625zm7.3349915 -0.109375l-3.609375 5.671875l0.046875 0.03125q0.671875 -0.453125 1.828125 -0.453125q1.734375 0 2.859375 1.171875q1.125 1.171875 1.171875 2.921875q0 1.828125 -1.234375 2.953125q-1.21875 1.109375 -3.0625 1.125q-1.859375 0 -3.0625 -1.140625q-1.203125 -1.15625 -1.234375 -2.953125q0 -1.046875 0.328125 -1.9375q0.34375 -0.90625 1.390625 -2.546875l2.984375 -4.84375l1.59375 0zm-4.953125 9.34375q0 1.234375 0.8125 2.03125q0.828125 0.796875 2.140625 0.828125q1.28125 0 2.109375 -0.796875q0.84375 -0.8125 0.84375 -2.0625q0 -1.234375 -0.8125 -2.046875q-0.796875 -0.8125 -2.15625 -0.8125q-1.25 0 -2.09375 0.78125q-0.828125 0.78125 -0.84375 2.078125zm18.356201 -10.46875q0.53125 0 1.0625 0.125l-0.21875 1.125q-0.5 -0.125 -0.953125 -0.125q-0.796875 0 -1.1875 0.484375q-0.390625 0.484375 -0.390625 1.671875l0 2.3125l2.0625 0l0 1.125l-2.0625 0l0 7.609375l-1.234375 0l0 -7.609375l-1.84375 0l0 -1.125l1.84375 0l0 -2.484375q0 -1.46875 0.71875 -2.28125q0.734375 -0.828125 2.203125 -0.828125zm5.772278 5.375q1.921875 0 3.0625 1.265625q1.140625 1.25 1.140625 3.28125l0 0.375l-7.2812805 0q0.140625 1.359375 1.03125 2.25q0.90625 0.890625 2.1719055 0.890625q0.84375 0 1.59375 -0.40625q0.765625 -0.40625 1.203125 -1.109375l0.953125 0.78125q-1.484375 1.84375 -3.75 1.84375q-1.9375305 0 -3.2344055 -1.296875q-1.28125 -1.3125 -1.28125 -3.28125q0 -1.921875 1.265625 -3.25q1.28125 -1.34375 3.1250305 -1.34375zm2.859375 3.921875q0 -1.296875 -0.78125 -2.046875q-0.78125 -0.75 -2.0625 -0.75q-1.1406555 0 -2.0781555 0.828125q-0.9375 0.828125 -0.984375 1.96875l5.9062805 0zm7.200989 -3.921875q1.5 0 2.34375 0.84375q0.859375 0.828125 0.859375 2.203125l0 4.046875q0 0.859375 0.15625 1.859375l-1.203125 0q-0.109375 -0.578125 -0.109375 -1.421875l-0.03125 0q-0.546875 0.859375 -1.28125 1.25q-0.734375 0.390625 -1.796875 0.390625q-1.34375 0 -2.1875 -0.703125q-0.828125 -0.703125 -0.828125 -1.84375q0 -1.578125 1.3125 -2.296875q1.328125 -0.734375 4.171875 -0.734375l0.5625 0l0 -0.1875q0 -1.1875 -0.546875 -1.734375q-0.546875 -0.546875 -1.6875 -0.546875q-1.53125 0 -2.671875 1.015625l-0.75 -0.875q1.234375 -1.265625 3.6875 -1.265625zm-2.734375 6.453125q0 0.75 0.5625 1.1875q0.578125 0.421875 1.5 0.421875q1.1875 0 1.90625 -0.734375q0.734375 -0.75 0.734375 -2.25l0 -0.46875l-0.859375 0q-1.75 0 -2.796875 0.453125q-1.046875 0.4375 -1.046875 1.390625zm10.791992 -8.6875l0 2.453125l2.515625 0l0 1.125l-2.515625 0l0 5.21875q0 0.71875 0.265625 1.109375q0.265625 0.390625 1.0 0.390625q0.640625 0 1.265625 -0.34375l0.0625 1.140625q-0.734375 0.3125 -1.671875 0.3125q-1.015625 0 -1.59375 -0.59375q-0.5625 -0.59375 -0.5625 -1.65625l0 -5.578125l-1.84375 0l0 -1.125l1.84375 0l0 -2.453125l1.234375 0zm5.4282227 2.453125l0 4.921875q0 1.515625 0.546875 2.21875q0.546875 0.703125 1.796875 0.703125q1.140625 0 1.90625 -0.921875q0.765625 -0.9375 0.765625 -2.359375l0 -4.5625l1.234375 0l0 6.890625q0.03125 1.046875 0.09375 1.84375l-1.265625 0q-0.0625 -0.703125 -0.0625 -1.40625l-0.03125 0q-0.46875 0.765625 -1.296875 1.203125q-0.8125 0.421875 -1.640625 0.421875q-1.703125 0 -2.5 -0.90625q-0.78125 -0.921875 -0.78125 -2.421875l0 -5.625l1.234375 0zm13.247864 -0.21875q0.484375 0 0.90625 0.109375l-0.234375 1.21875q-0.21875 -0.09375 -0.703125 -0.09375q-1.171875 0 -1.953125 0.8125q-0.765625 0.8125 -0.765625 2.0625l0 4.84375l-1.234375 0l0 -6.0625q-0.015625 -1.5625 -0.0625 -2.671875l1.203125 0l0 1.625l0.046875 0q0.71875 -1.84375 2.796875 -1.84375zm5.686035 0q1.921875 0 3.0625 1.265625q1.140625 1.25 1.140625 3.28125l0 0.375l-7.28125 0q0.140625 1.359375 1.03125 2.25q0.90625 0.890625 2.171875 0.890625q0.84375 0 1.59375 -0.40625q0.765625 -0.40625 1.203125 -1.109375l0.953125 0.78125q-1.484375 1.84375 -3.75 1.84375q-1.9375 0 -3.234375 -1.296875q-1.28125 -1.3125 -1.28125 -3.28125q0 -1.921875 1.265625 -3.25q1.28125 -1.34375 3.125 -1.34375zm2.859375 3.921875q0 -1.296875 -0.78125 -2.046875q-0.78125 -0.75 -2.0625 -0.75q-1.140625 0 -2.078125 0.828125q-0.9375 0.828125 -0.984375 1.96875l5.90625 0zm6.388489 -3.921875q2.171875 0 2.921875 1.5625l-1.109375 0.734375q-0.609375 -1.171875 -1.890625 -1.171875q-0.78125 0 -1.296875 0.359375q-0.5 0.34375 -0.5 0.9375q0 0.578125 0.40625 0.890625q0.40625 0.3125 1.609375 0.5625q1.578125 0.34375 2.109375 0.765625q0.546875 0.40625 0.75 0.921875q0.21875 0.5 0.21875 0.921875q0 1.25 -0.9375 1.96875q-0.9375 0.71875 -2.46875 0.71875q-2.21875 0 -3.359375 -1.6875l1.0625 -0.734375q0.859375 1.3125 2.296875 1.3125q0.921875 0 1.484375 -0.40625q0.578125 -0.40625 0.578125 -1.09375q0 -0.5625 -0.484375 -0.90625q-0.484375 -0.34375 -1.875 -0.625q-2.734375 -0.53125 -2.734375 -2.40625q0 -1.1875 0.890625 -1.90625q0.890625 -0.71875 2.328125 -0.71875zm5.010071 -4.78125q1.265625 1.8125 1.9375 3.984375q0.6875 2.171875 0.6875 4.375q0 2.234375 -0.703125 4.390625q-0.703125 2.15625 -2.0 3.96875l-0.984375 -0.640625q1.453125 -2.4375 1.953125 -4.0625q0.5 -1.640625 0.5 -3.65625q0 -2.015625 -0.46875 -3.578125q-0.46875 -1.5625 -1.921875 -4.03125l1.0 -0.75z" fill-rule="nonzero"/><path fill="#d9ead3" d="m396.8504 736.42126l166.2992 0l0 42.015747l-166.2992 0z" fill-rule="evenodd"/><path fill="#000000" d="m422.65225 749.7944q1.921875 0 3.5 0.90625q1.59375 0.90625 2.484375 2.5q0.890625 1.578125 0.890625 3.53125q0 3.015625 -1.984375 4.984375q-1.96875 1.953125 -4.890625 1.953125q-2.9375 0 -4.921875 -1.984375q-1.96875 -1.984375 -1.96875 -4.953125q0 -2.9375 1.953125 -4.9375q1.96875 -2.0 4.9375 -2.0zm-5.4375 6.9375q0 2.46875 1.53125 4.09375q1.546875 1.625 3.90625 1.625q2.375 0 3.890625 -1.625q1.53125 -1.640625 1.53125 -4.09375q0 -2.421875 -1.546875 -4.0625q-1.53125 -1.640625 -3.890625 -1.640625q-2.34375 0 -3.890625 1.625q-1.53125 1.609375 -1.53125 4.078125zm15.793701 -2.125l0 4.921875q0 1.515625 0.546875 2.21875q0.546875 0.703125 1.796875 0.703125q1.140625 0 1.90625 -0.921875q0.765625 -0.9375 0.765625 -2.359375l0 -4.5625l1.234375 0l0 6.890625q0.03125 1.046875 0.09375 1.84375l-1.265625 0q-0.0625 -0.703125 -0.0625 -1.40625l-0.03125 0q-0.46875 0.765625 -1.296875 1.203125q-0.8125 0.421875 -1.640625 0.421875q-1.703125 0 -2.5 -0.90625q-0.78125 -0.921875 -0.78125 -2.421875l0 -5.625l1.234375 0zm11.138489 -2.453125l0 2.453125l2.515625 0l0 1.125l-2.515625 0l0 5.21875q0 0.71875 0.265625 1.109375q0.265625 0.390625 1.0 0.390625q0.640625 0 1.265625 -0.34375l0.0625 1.140625q-0.734375 0.3125 -1.671875 0.3125q-1.015625 0 -1.59375 -0.59375q-0.5625 -0.59375 -0.5625 -1.65625l0 -5.578125l-1.84375 0l0 -1.125l1.84375 0l0 -2.453125l1.234375 0zm8.850128 2.234375q2.0 0 3.328125 1.296875q1.328125 1.296875 1.328125 3.296875q0 1.984375 -1.328125 3.28125q-1.3125 1.296875 -3.328125 1.296875q-0.984375 0 -1.921875 -0.4375q-0.921875 -0.453125 -1.46875 -1.234375l-0.03125 0l0 6.828125l-1.234375 0l0 -14.109375l1.234375 0l0 1.453125l0.03125 0q0.546875 -0.78125 1.46875 -1.21875q0.921875 -0.453125 1.921875 -0.453125zm-3.484375 4.59375q0 1.453125 1.0 2.46875q1.0 1.0 2.484375 1.0q1.484375 0 2.390625 -0.984375q0.921875 -0.984375 0.921875 -2.484375q0 -1.546875 -0.953125 -2.5q-0.9375 -0.96875 -2.375 -0.96875q-1.484375 0 -2.484375 1.0q-0.984375 1.0 -0.984375 2.46875zm11.461487 -4.375l0 4.921875q0 1.515625 0.546875 2.21875q0.546875 0.703125 1.796875 0.703125q1.140625 0 1.90625 -0.921875q0.765625 -0.9375 0.765625 -2.359375l0 -4.5625l1.234375 0l0 6.890625q0.03125 1.046875 0.09375 1.84375l-1.265625 0q-0.0625 -0.703125 -0.0625 -1.40625l-0.03125 0q-0.46875 0.765625 -1.296875 1.203125q-0.8125 0.421875 -1.640625 0.421875q-1.703125 0 -2.5 -0.90625q-0.78125 -0.921875 -0.78125 -2.421875l0 -5.625l1.234375 0zm11.138489 -2.453125l0 2.453125l2.515625 0l0 1.125l-2.515625 0l0 5.21875q0 0.71875 0.265625 1.109375q0.265625 0.390625 1.0 0.390625q0.640625 0 1.265625 -0.34375l0.0625 1.140625q-0.734375 0.3125 -1.671875 0.3125q-1.015625 0 -1.59375 -0.59375q-0.5625 -0.59375 -0.5625 -1.65625l0 -5.578125l-1.84375 0l0 -1.125l1.84375 0l0 -2.453125l1.234375 0zm10.895935 -2.921875l0 14.109375l-1.234375 0l0 -14.109375l1.234375 0zm6.5868835 5.15625q1.5 0 2.34375 0.84375q0.859375 0.828125 0.859375 2.203125l0 4.046875q0 0.859375 0.15625 1.859375l-1.203125 0q-0.109375 -0.578125 -0.109375 -1.421875l-0.03125 0q-0.546875 0.859375 -1.28125 1.25q-0.734375 0.390625 -1.796875 0.390625q-1.34375 0 -2.1875 -0.703125q-0.828125 -0.703125 -0.828125 -1.84375q0 -1.578125 1.3125 -2.296875q1.328125 -0.734375 4.171875 -0.734375l0.5625 0l0 -0.1875q0 -1.1875 -0.546875 -1.734375q-0.546875 -0.546875 -1.6875 -0.546875q-1.53125 0 -2.671875 1.015625l-0.75 -0.875q1.234375 -1.265625 3.6875 -1.265625zm-2.734375 6.453125q0 0.75 0.5625 1.1875q0.578125 0.421875 1.5 0.421875q1.1875 0 1.90625 -0.734375q0.734375 -0.75 0.734375 -2.25l0 -0.46875l-0.859375 0q-1.75 0 -2.796875 0.453125q-1.046875 0.4375 -1.046875 1.390625zm9.291992 -6.234375l2.75 7.21875l2.65625 -7.21875l1.5 0l-4.25 10.75q-0.5 1.3125 -1.140625 1.890625q-0.640625 0.578125 -1.734375 0.578125q-0.59375 0 -1.125 -0.140625l0.140625 -1.1875q0.40625 0.203125 0.921875 0.203125q1.09375 0 1.59375 -1.34375l0.71875 -1.90625l-3.578125 -8.84375l1.546875 0zm12.42981 -0.21875q1.921875 0 3.0625 1.265625q1.1405945 1.25 1.1405945 3.28125l0 0.375l-7.2812195 0q0.140625 1.359375 1.03125 2.25q0.90625 0.890625 2.171875 0.890625q0.84375 0 1.59375 -0.40625q0.765625 -0.40625 1.203125 -1.109375l0.9530945 0.78125q-1.4843445 1.84375 -3.7499695 1.84375q-1.9375 0 -3.234375 -1.296875q-1.28125 -1.3125 -1.28125 -3.28125q0 -1.921875 1.265625 -3.25q1.28125 -1.34375 3.125 -1.34375zm2.859375 3.921875q0 -1.296875 -0.78125 -2.046875q-0.78125 -0.75 -2.0625 -0.75q-1.140625 0 -2.078125 0.828125q-0.9375 0.828125 -0.984375 1.96875l5.90625 0zm7.6853943 -3.921875q0.484375 0 0.90625 0.109375l-0.234375 1.21875q-0.21875 -0.09375 -0.703125 -0.09375q-1.171875 0 -1.953125 0.8125q-0.765625 0.8125 -0.765625 2.0625l0 4.84375l-1.234375 0l0 -6.0625q-0.015625 -1.5625 -0.0625 -2.671875l1.203125 0l0 1.625l0.046875 0q0.71875 -1.84375 2.796875 -1.84375zm10.63031 -4.140625q-1.421875 2.34375 -1.953125 3.984375q-0.515625 1.640625 -0.515625 3.734375q0 1.9375 0.4375 3.515625q0.4375 1.5625 1.953125 4.09375l-0.984375 0.75q-1.25 -1.75 -1.953125 -3.953125q-0.6875 -2.21875 -0.6875 -4.40625q0 -2.203125 0.703125 -4.375q0.703125 -2.171875 2.015625 -3.984375l0.984375 0.640625zm6.647461 -0.109375l0 13.203125l-1.34375 0l0 -11.53125l-2.390625 2.09375l-0.828125 -1.015625l3.359375 -2.75l1.203125 0zm5.091675 -0.53125q1.265625 1.8125 1.9375 3.984375q0.6875 2.171875 0.6875 4.375q0 2.234375 -0.703125 4.390625q-0.703125 2.15625 -2.0 3.96875l-0.984375 -0.640625q1.453125 -2.4375 1.953125 -4.0625q0.5 -1.640625 0.5 -3.65625q0 -2.015625 -0.46875 -3.578125q-0.46875 -1.5625 -1.921875 -4.03125l1.0 -0.75z" fill-rule="nonzero"/><path fill="#c9daf8" d="m191.93701 166.92258l576.126 0l0 42.015747l-576.126 0z" fill-rule="evenodd"/><path fill="#000000" d="m400.73166 180.63945l0 1.21875l-6.609375 0l0 4.5l6.15625 0l0 1.234375l-6.15625 0l0 6.25l-1.34375 0l0 -13.203125l7.953125 0zm3.2010193 4.46875l0 4.921875q0 1.515625 0.546875 2.21875q0.546875 0.703125 1.796875 0.703125q1.140625 0 1.90625 -0.921875q0.765625 -0.9375 0.765625 -2.359375l0 -4.5625l1.234375 0l0 6.890625q0.03125 1.046875 0.09375 1.84375l-1.265625 0q-0.0625 -0.703125 -0.0625 -1.40625l-0.03125 0q-0.46875 0.765625 -1.296875 1.203125q-0.8125 0.421875 -1.640625 0.421875q-1.703125 0 -2.5 -0.90625q-0.78125 -0.921875 -0.78125 -2.421875l0 -5.625l1.234375 0zm10.654114 -5.375l0 14.109375l-1.234375 0l0 -14.109375l1.234375 0zm4.4961853 0l0 14.109375l-1.234375 0l0 -14.109375l1.234375 0zm3.4618835 5.375l2.75 7.21875l2.65625 -7.21875l1.5 0l-4.25 10.75q-0.5 1.3125 -1.140625 1.890625q-0.640625 0.578125 -1.734375 0.578125q-0.59375 0 -1.125 -0.140625l0.140625 -1.1875q0.40625 0.203125 0.921875 0.203125q1.09375 0 1.59375 -1.34375l0.71875 -1.90625l-3.578125 -8.84375l1.546875 0zm17.788116 -0.21875q1.96875 0 3.265625 1.515625l-1.015625 0.765625q-0.796875 -1.15625 -2.21875 -1.15625q-1.453125 0 -2.359375 0.96875q-0.890625 0.96875 -0.890625 2.5q0 1.5625 0.890625 2.515625q0.90625 0.953125 2.296875 0.953125q1.5 0 2.28125 -1.15625l1.015625 0.765625q-1.25 1.5 -3.3125 1.5q-2.015625 0 -3.265625 -1.296875q-1.25 -1.3125 -1.25 -3.28125q0 -2.015625 1.265625 -3.296875q1.28125 -1.296875 3.296875 -1.296875zm9.05481 0q1.984375 0 3.3125 1.296875q1.34375 1.28125 1.34375 3.296875q0 1.96875 -1.296875 3.28125q-1.296875 1.296875 -3.359375 1.296875q-2.015625 0 -3.328125 -1.296875q-1.296875 -1.3125 -1.296875 -3.28125q0 -1.953125 1.296875 -3.265625q1.3125 -1.328125 3.328125 -1.328125zm-3.28125 4.59375q0 1.5 0.90625 2.484375q0.90625 0.984375 2.375 0.984375q1.5 0 2.40625 -1.0q0.90625 -1.0 0.90625 -2.46875q0 -1.546875 -0.9375 -2.5q-0.9375 -0.96875 -2.390625 -0.96875q-1.46875 0 -2.375 1.0q-0.890625 0.984375 -0.890625 2.46875zm14.375641 -4.59375q1.640625 0 2.453125 0.875q0.828125 0.875 0.828125 2.46875l0 5.609375l-1.234375 0l0 -4.921875q0 -1.484375 -0.546875 -2.1875q-0.53125 -0.71875 -1.75 -0.71875q-1.1875 0 -1.953125 0.921875q-0.765625 0.90625 -0.765625 2.5l0 4.40625l-1.234375 0l0 -6.890625q0 -1.0625 -0.09375 -1.84375l1.265625 0q0.0625 0.53125 0.0625 1.40625l0.03125 0q0.40625 -0.734375 1.234375 -1.171875q0.828125 -0.453125 1.703125 -0.453125zm10.372894 0q1.640625 0 2.453125 0.875q0.828125 0.875 0.828125 2.46875l0 5.609375l-1.234375 0l0 -4.921875q0 -1.484375 -0.546875 -2.1875q-0.53125 -0.71875 -1.75 -0.71875q-1.1875 0 -1.953125 0.921875q-0.765625 0.90625 -0.765625 2.5l0 4.40625l-1.234375 0l0 -6.890625q0 -1.0625 -0.09375 -1.84375l1.265625 0q0.0625 0.53125 0.0625 1.40625l0.03125 0q0.40625 -0.734375 1.234375 -1.171875q0.828125 -0.453125 1.703125 -0.453125zm10.107269 0q1.921875 0 3.0625 1.265625q1.140625 1.25 1.140625 3.28125l0 0.375l-7.28125 0q0.140625 1.359375 1.03125 2.25q0.90625 0.890625 2.171875 0.890625q0.84375 0 1.59375 -0.40625q0.765625 -0.40625 1.203125 -1.109375l0.953125 0.78125q-1.484375 1.84375 -3.75 1.84375q-1.9375 0 -3.234375 -1.296875q-1.28125 -1.3125 -1.28125 -3.28125q0 -1.921875 1.265625 -3.25q1.28125 -1.34375 3.125 -1.34375zm2.859375 3.921875q0 -1.296875 -0.78125 -2.046875q-0.78125 -0.75 -2.0625 -0.75q-1.140625 0 -2.078125 0.828125q-0.9375 0.828125 -0.984375 1.96875l5.90625 0zm7.685364 -3.921875q1.96875 0 3.265625 1.515625l-1.015625 0.765625q-0.796875 -1.15625 -2.21875 -1.15625q-1.453125 0 -2.359375 0.96875q-0.890625 0.96875 -0.890625 2.5q0 1.5625 0.890625 2.515625q0.90625 0.953125 2.296875 0.953125q1.5 0 2.28125 -1.15625l1.015625 0.765625q-1.25 1.5 -3.3125 1.5q-2.015625 0 -3.265625 -1.296875q-1.25 -1.3125 -1.25 -3.28125q0 -2.015625 1.265625 -3.296875q1.28125 -1.296875 3.296875 -1.296875zm6.8829346 -2.234375l0 2.453125l2.515625 0l0 1.125l-2.515625 0l0 5.21875q0 0.71875 0.265625 1.109375q0.265625 0.390625 1.0 0.390625q0.640625 0 1.265625 -0.34375l0.0625 1.140625q-0.734375 0.3125 -1.671875 0.3125q-1.015625 0 -1.59375 -0.59375q-0.5625 -0.59375 -0.5625 -1.65625l0 -5.578125l-1.84375 0l0 -1.125l1.84375 0l0 -2.453125l1.234375 0zm8.131378 2.234375q1.921875 0 3.0625 1.265625q1.140625 1.25 1.140625 3.28125l0 0.375l-7.28125 0q0.140625 1.359375 1.03125 2.25q0.90625 0.890625 2.171875 0.890625q0.84375 0 1.59375 -0.40625q0.765625 -0.40625 1.203125 -1.109375l0.953125 0.78125q-1.484375 1.84375 -3.75 1.84375q-1.9375 0 -3.234375 -1.296875q-1.28125 -1.3125 -1.28125 -3.28125q0 -1.921875 1.265625 -3.25q1.28125 -1.34375 3.125 -1.34375zm2.859375 3.921875q0 -1.296875 -0.78125 -2.046875q-0.78125 -0.75 -2.0625 -0.75q-1.140625 0 -2.078125 0.828125q-0.9375 0.828125 -0.984375 1.96875l5.90625 0zm12.294769 -9.078125l0 14.109375l-1.234375 0l0 -1.453125l-0.046875 0q-0.546875 0.796875 -1.484375 1.234375q-0.9375 0.4375 -1.90625 0.4375q-2.03125 0 -3.34375 -1.3125q-1.296875 -1.328125 -1.296875 -3.265625q0 -1.953125 1.296875 -3.265625q1.3125 -1.328125 3.34375 -1.328125q1.015625 0 1.9375 0.453125q0.921875 0.4375 1.453125 1.21875l0.046875 0l0 -6.828125l1.234375 0zm-7.96875 9.75q0 1.546875 0.921875 2.515625q0.9375 0.953125 2.375 0.953125q1.5 0 2.484375 -1.0q1.0 -1.015625 1.0 -2.46875q0 -1.46875 -1.0 -2.46875q-0.984375 -1.0 -2.5 -1.0q-1.421875 0 -2.359375 0.984375q-0.921875 0.96875 -0.921875 2.484375zm19.194763 -8.734375q-1.421875 2.34375 -1.953125 3.984375q-0.515625 1.640625 -0.515625 3.734375q0 1.9375 0.4375 3.515625q0.4375 1.5625 1.953125 4.09375l-0.984375 0.75q-1.25 -1.75 -1.953125 -3.953125q-0.6875 -2.21875 -0.6875 -4.40625q0 -2.203125 0.703125 -4.375q0.703125 -2.171875 2.015625 -3.984375l0.984375 0.640625zm8.819397 -0.109375l0 1.21875l-5.40625 0l-0.078125 3.984375q0.8125 -0.328125 1.78125 -0.328125q1.796875 0 2.96875 1.203125q1.171875 1.1875 1.203125 3.046875q0 1.875 -1.265625 3.078125q-1.25 1.203125 -3.171875 1.21875q-1.25 0 -2.265625 -0.609375q-1.015625 -0.609375 -1.546875 -1.734375l1.328125 -0.578125q0.859375 1.65625 2.59375 1.703125q1.25 0 2.109375 -0.875q0.859375 -0.875 0.875 -2.078125q0 -1.375 -0.921875 -2.25q-0.90625 -0.890625 -2.328125 -0.890625q-1.359375 0 -2.734375 0.734375l0.125 -6.84375l6.734375 0zm8.200989 0l0 13.203125l-1.34375 0l0 -11.53125l-2.390625 2.09375l-0.828125 -1.015625l3.359375 -2.75l1.203125 0zm9.060364 -0.234375q1.84375 0 2.90625 0.953125q1.078125 0.953125 1.078125 2.59375q0 0.984375 -0.5 1.9375q-0.5 0.9375 -2.0 2.4375l-4.328125 4.28125l6.953125 0l0 1.234375l-8.40625 0l0 -1.546875q3.46875 -3.53125 5.25 -5.328125q1.78125 -1.8125 1.6875 -3.015625q0 -1.015625 -0.71875 -1.65625q-0.703125 -0.65625 -1.828125 -0.65625q-0.96875 0 -1.6875 0.5625q-0.703125 0.546875 -0.9375 1.515625l-1.421875 -0.15625q0.265625 -1.453125 1.359375 -2.296875q1.09375 -0.859375 2.59375 -0.859375zm6.404114 -0.296875q1.265625 1.8125 1.9375 3.984375q0.6875 2.171875 0.6875 4.375q0 2.234375 -0.703125 4.390625q-0.703125 2.15625 -2.0 3.96875l-0.984375 -0.640625q1.453125 -2.4375 1.953125 -4.0625q0.5 -1.640625 0.5 -3.65625q0 -2.015625 -0.46875 -3.578125q-0.46875 -1.5625 -1.921875 -4.03125l1.0 -0.75z" fill-rule="nonzero"/><path fill="#c9daf8" d="m210.86613 248.2769l538.2677 0l0 42.015762l-538.2677 0z" fill-rule="evenodd"/><path fill="#000000" d="m400.73166 261.99377l0 1.21875l-6.609375 0l0 4.5l6.15625 0l0 1.234375l-6.15625 0l0 6.25l-1.34375 0l0 -13.203125l7.953125 0zm3.2010193 4.46875l0 4.921875q0 1.515625 0.546875 2.21875q0.546875 0.703125 1.796875 0.703125q1.140625 0 1.90625 -0.921875q0.765625 -0.9375 0.765625 -2.359375l0 -4.5625l1.234375 0l0 6.890625q0.03125 1.046875 0.09375 1.84375l-1.265625 0q-0.0625 -0.703125 -0.0625 -1.40625l-0.03125 0q-0.46875 0.765625 -1.296875 1.203125q-0.8125 0.421875 -1.640625 0.421875q-1.703125 0 -2.5 -0.90625q-0.78125 -0.921875 -0.78125 -2.421875l0 -5.625l1.234375 0zm10.654114 -5.375l0 14.109375l-1.234375 0l0 -14.109375l1.234375 0zm4.4961853 0l0 14.109375l-1.234375 0l0 -14.109375l1.234375 0zm3.4618835 5.375l2.75 7.21875l2.65625 -7.21875l1.5 0l-4.25 10.75q-0.5 1.3125 -1.140625 1.890625q-0.640625 0.578125 -1.734375 0.578125q-0.59375 0 -1.125 -0.140625l0.140625 -1.1875q0.40625 0.203125 0.921875 0.203125q1.09375 0 1.59375 -1.34375l0.71875 -1.90625l-3.578125 -8.84375l1.546875 0zm17.788116 -0.21875q1.96875 0 3.265625 1.515625l-1.015625 0.765625q-0.796875 -1.15625 -2.21875 -1.15625q-1.453125 0 -2.359375 0.96875q-0.890625 0.96875 -0.890625 2.5q0 1.5625 0.890625 2.515625q0.90625 0.953125 2.296875 0.953125q1.5 0 2.28125 -1.15625l1.015625 0.765625q-1.25 1.5 -3.3125 1.5q-2.015625 0 -3.265625 -1.296875q-1.25 -1.3125 -1.25 -3.28125q0 -2.015625 1.265625 -3.296875q1.28125 -1.296875 3.296875 -1.296875zm9.05481 0q1.984375 0 3.3125 1.296875q1.34375 1.28125 1.34375 3.296875q0 1.96875 -1.296875 3.28125q-1.296875 1.296875 -3.359375 1.296875q-2.015625 0 -3.328125 -1.296875q-1.296875 -1.3125 -1.296875 -3.28125q0 -1.953125 1.296875 -3.265625q1.3125 -1.328125 3.328125 -1.328125zm-3.28125 4.59375q0 1.5 0.90625 2.484375q0.90625 0.984375 2.375 0.984375q1.5 0 2.40625 -1.0q0.90625 -1.0 0.90625 -2.46875q0 -1.546875 -0.9375 -2.5q-0.9375 -0.96875 -2.390625 -0.96875q-1.46875 0 -2.375 1.0q-0.890625 0.984375 -0.890625 2.46875zm14.375641 -4.59375q1.640625 0 2.453125 0.875q0.828125 0.875 0.828125 2.46875l0 5.609375l-1.234375 0l0 -4.921875q0 -1.484375 -0.546875 -2.1875q-0.53125 -0.71875 -1.75 -0.71875q-1.1875 0 -1.953125 0.921875q-0.765625 0.90625 -0.765625 2.5l0 4.40625l-1.234375 0l0 -6.890625q0 -1.0625 -0.09375 -1.84375l1.265625 0q0.0625 0.53125 0.0625 1.40625l0.03125 0q0.40625 -0.734375 1.234375 -1.171875q0.828125 -0.453125 1.703125 -0.453125zm10.372894 0q1.640625 0 2.453125 0.875q0.828125 0.875 0.828125 2.46875l0 5.609375l-1.234375 0l0 -4.921875q0 -1.484375 -0.546875 -2.1875q-0.53125 -0.71875 -1.75 -0.71875q-1.1875 0 -1.953125 0.921875q-0.765625 0.90625 -0.765625 2.5l0 4.40625l-1.234375 0l0 -6.890625q0 -1.0625 -0.09375 -1.84375l1.265625 0q0.0625 0.53125 0.0625 1.40625l0.03125 0q0.40625 -0.734375 1.234375 -1.171875q0.828125 -0.453125 1.703125 -0.453125zm10.107269 0q1.921875 0 3.0625 1.265625q1.140625 1.25 1.140625 3.28125l0 0.375l-7.28125 0q0.140625 1.359375 1.03125 2.25q0.90625 0.890625 2.171875 0.890625q0.84375 0 1.59375 -0.40625q0.765625 -0.40625 1.203125 -1.109375l0.953125 0.78125q-1.484375 1.84375 -3.75 1.84375q-1.9375 0 -3.234375 -1.296875q-1.28125 -1.3125 -1.28125 -3.28125q0 -1.921875 1.265625 -3.25q1.28125 -1.34375 3.125 -1.34375zm2.859375 3.921875q0 -1.296875 -0.78125 -2.046875q-0.78125 -0.75 -2.0625 -0.75q-1.140625 0 -2.078125 0.828125q-0.9375 0.828125 -0.984375 1.96875l5.90625 0zm7.685364 -3.921875q1.96875 0 3.265625 1.515625l-1.015625 0.765625q-0.796875 -1.15625 -2.21875 -1.15625q-1.453125 0 -2.359375 0.96875q-0.890625 0.96875 -0.890625 2.5q0 1.5625 0.890625 2.515625q0.90625 0.953125 2.296875 0.953125q1.5 0 2.28125 -1.15625l1.015625 0.765625q-1.25 1.5 -3.3125 1.5q-2.015625 0 -3.265625 -1.296875q-1.25 -1.3125 -1.25 -3.28125q0 -2.015625 1.265625 -3.296875q1.28125 -1.296875 3.296875 -1.296875zm6.8829346 -2.234375l0 2.453125l2.515625 0l0 1.125l-2.515625 0l0 5.21875q0 0.71875 0.265625 1.109375q0.265625 0.390625 1.0 0.390625q0.640625 0 1.265625 -0.34375l0.0625 1.140625q-0.734375 0.3125 -1.671875 0.3125q-1.015625 0 -1.59375 -0.59375q-0.5625 -0.59375 -0.5625 -1.65625l0 -5.578125l-1.84375 0l0 -1.125l1.84375 0l0 -2.453125l1.234375 0zm8.131378 2.234375q1.921875 0 3.0625 1.265625q1.140625 1.25 1.140625 3.28125l0 0.375l-7.28125 0q0.140625 1.359375 1.03125 2.25q0.90625 0.890625 2.171875 0.890625q0.84375 0 1.59375 -0.40625q0.765625 -0.40625 1.203125 -1.109375l0.953125 0.78125q-1.484375 1.84375 -3.75 1.84375q-1.9375 0 -3.234375 -1.296875q-1.28125 -1.3125 -1.28125 -3.28125q0 -1.921875 1.265625 -3.25q1.28125 -1.34375 3.125 -1.34375zm2.859375 3.921875q0 -1.296875 -0.78125 -2.046875q-0.78125 -0.75 -2.0625 -0.75q-1.140625 0 -2.078125 0.828125q-0.9375 0.828125 -0.984375 1.96875l5.90625 0zm12.294769 -9.078125l0 14.109375l-1.234375 0l0 -1.453125l-0.046875 0q-0.546875 0.796875 -1.484375 1.234375q-0.9375 0.4375 -1.90625 0.4375q-2.03125 0 -3.34375 -1.3125q-1.296875 -1.328125 -1.296875 -3.265625q0 -1.953125 1.296875 -3.265625q1.3125 -1.328125 3.34375 -1.328125q1.015625 0 1.9375 0.453125q0.921875 0.4375 1.453125 1.21875l0.046875 0l0 -6.828125l1.234375 0zm-7.96875 9.75q0 1.546875 0.921875 2.515625q0.9375 0.953125 2.375 0.953125q1.5 0 2.484375 -1.0q1.0 -1.015625 1.0 -2.46875q0 -1.46875 -1.0 -2.46875q-0.984375 -1.0 -2.5 -1.0q-1.421875 0 -2.359375 0.984375q-0.921875 0.96875 -0.921875 2.484375zm19.194763 -8.734375q-1.421875 2.34375 -1.953125 3.984375q-0.515625 1.640625 -0.515625 3.734375q0 1.9375 0.4375 3.515625q0.4375 1.5625 1.953125 4.09375l-0.984375 0.75q-1.25 -1.75 -1.953125 -3.953125q-0.6875 -2.21875 -0.6875 -4.40625q0 -2.203125 0.703125 -4.375q0.703125 -2.171875 2.015625 -3.984375l0.984375 0.640625zm5.335022 -0.34375q1.84375 0 2.90625 0.953125q1.078125 0.953125 1.078125 2.59375q0 0.984375 -0.5 1.9375q-0.5 0.9375 -2.0 2.4375l-4.328125 4.28125l6.953125 0l0 1.234375l-8.40625 0l0 -1.546875q3.46875 -3.53125 5.25 -5.328125q1.78125 -1.8125 1.6875 -3.015625q0 -1.015625 -0.71875 -1.65625q-0.703125 -0.65625 -1.828125 -0.65625q-0.96875 0 -1.6875 0.5625q-0.703125 0.546875 -0.9375 1.515625l-1.421875 -0.15625q0.265625 -1.453125 1.359375 -2.296875q1.09375 -0.859375 2.59375 -0.859375zm13.857239 0.234375l0 1.21875l-5.40625 0l-0.078125 3.984375q0.8125 -0.328125 1.78125 -0.328125q1.796875 0 2.96875 1.203125q1.171875 1.1875 1.203125 3.046875q0 1.875 -1.265625 3.078125q-1.25 1.203125 -3.171875 1.21875q-1.25 0 -2.265625 -0.609375q-1.015625 -0.609375 -1.546875 -1.734375l1.328125 -0.578125q0.859375 1.65625 2.59375 1.703125q1.25 0 2.109375 -0.875q0.859375 -0.875 0.875 -2.078125q0 -1.375 -0.921875 -2.25q-0.90625 -0.890625 -2.328125 -0.890625q-1.359375 0 -2.734375 0.734375l0.125 -6.84375l6.734375 0zm8.888489 0l-3.609375 5.671875l0.046875 0.03125q0.671875 -0.453125 1.828125 -0.453125q1.734375 0 2.859375 1.171875q1.125 1.171875 1.171875 2.921875q0 1.828125 -1.234375 2.953125q-1.21875 1.109375 -3.0625 1.125q-1.859375 0 -3.0625 -1.140625q-1.203125 -1.15625 -1.234375 -2.953125q0 -1.046875 0.328125 -1.9375q0.34375 -0.90625 1.390625 -2.546875l2.984375 -4.84375l1.59375 0zm-4.953125 9.34375q0 1.234375 0.8125 2.03125q0.828125 0.796875 2.140625 0.828125q1.28125 0 2.109375 -0.796875q0.84375 -0.8125 0.84375 -2.0625q0 -1.234375 -0.8125 -2.046875q-0.796875 -0.8125 -2.15625 -0.8125q-1.25 0 -2.09375 0.78125q-0.828125 0.78125 -0.84375 2.078125zm9.357239 -9.875q1.265625 1.8125 1.9375 3.984375q0.6875 2.171875 0.6875 4.375q0 2.234375 -0.703125 4.390625q-0.703125 2.15625 -2.0 3.96875l-0.984375 -0.640625q1.453125 -2.4375 1.953125 -4.0625q0.5 -1.640625 0.5 -3.65625q0 -2.015625 -0.46875 -3.578125q-0.46875 -1.5625 -1.921875 -4.03125l1.0 -0.75z" fill-rule="nonzero"/><path fill="#c9daf8" d="m227.77953 329.63516l504.44092 0l0 42.015747l-504.44092 0z" fill-rule="evenodd"/><path fill="#000000" d="m400.7317 343.35205l0 1.21875l-6.609375 0l0 4.5l6.15625 0l0 1.234375l-6.15625 0l0 6.25l-1.34375 0l0 -13.203125l7.953125 0zm3.2009888 4.46875l0 4.921875q0 1.515625 0.546875 2.21875q0.546875 0.703125 1.796875 0.703125q1.140625 0 1.90625 -0.921875q0.765625 -0.9375 0.765625 -2.359375l0 -4.5625l1.234375 0l0 6.890625q0.03125 1.046875 0.09375 1.84375l-1.265625 0q-0.0625 -0.703125 -0.0625 -1.40625l-0.03125 0q-0.46875 0.765625 -1.296875 1.203125q-0.8125 0.421875 -1.640625 0.421875q-1.703125 0 -2.5 -0.90625q-0.78125 -0.921875 -0.78125 -2.421875l0 -5.625l1.234375 0zm10.654144 -5.375l0 14.109375l-1.234375 0l0 -14.109375l1.234375 0zm4.496155 0l0 14.109375l-1.234375 0l0 -14.109375l1.234375 0zm3.4618835 5.375l2.75 7.21875l2.65625 -7.21875l1.5 0l-4.25 10.75q-0.5 1.3125 -1.140625 1.890625q-0.640625 0.578125 -1.734375 0.578125q-0.59375 0 -1.125 -0.140625l0.140625 -1.1875q0.40625 0.203125 0.921875 0.203125q1.09375 0 1.59375 -1.34375l0.71875 -1.90625l-3.578125 -8.84375l1.546875 0zm17.788116 -0.21875q1.96875 0 3.265625 1.515625l-1.015625 0.765625q-0.796875 -1.15625 -2.21875 -1.15625q-1.453125 0 -2.359375 0.96875q-0.890625 0.96875 -0.890625 2.5q0 1.5625 0.890625 2.515625q0.90625 0.953125 2.296875 0.953125q1.5 0 2.28125 -1.15625l1.015625 0.765625q-1.25 1.5 -3.3125 1.5q-2.015625 0 -3.265625 -1.296875q-1.25 -1.3125 -1.25 -3.28125q0 -2.015625 1.265625 -3.296875q1.28125 -1.296875 3.296875 -1.296875zm9.05481 0q1.984375 0 3.3125 1.296875q1.34375 1.28125 1.34375 3.296875q0 1.96875 -1.296875 3.28125q-1.296875 1.296875 -3.359375 1.296875q-2.015625 0 -3.328125 -1.296875q-1.296875 -1.3125 -1.296875 -3.28125q0 -1.953125 1.296875 -3.265625q1.3125 -1.328125 3.328125 -1.328125zm-3.28125 4.59375q0 1.5 0.90625 2.484375q0.90625 0.984375 2.375 0.984375q1.5 0 2.40625 -1.0q0.90625 -1.0 0.90625 -2.46875q0 -1.546875 -0.9375 -2.5q-0.9375 -0.96875 -2.390625 -0.96875q-1.46875 0 -2.375 1.0q-0.890625 0.984375 -0.890625 2.46875zm14.375671 -4.59375q1.640625 0 2.453125 0.875q0.828125 0.875 0.828125 2.46875l0 5.609375l-1.234375 0l0 -4.921875q0 -1.484375 -0.546875 -2.1875q-0.53125 -0.71875 -1.75 -0.71875q-1.1875 0 -1.953125 0.921875q-0.765625 0.90625 -0.765625 2.5l0 4.40625l-1.234375 0l0 -6.890625q0 -1.0625 -0.09375 -1.84375l1.265625 0q0.0625 0.53125 0.0625 1.40625l0.03125 0q0.40625 -0.734375 1.234375 -1.171875q0.828125 -0.453125 1.703125 -0.453125zm10.372864 0q1.640625 0 2.453125 0.875q0.828125 0.875 0.828125 2.46875l0 5.609375l-1.234375 0l0 -4.921875q0 -1.484375 -0.546875 -2.1875q-0.53125 -0.71875 -1.75 -0.71875q-1.1875 0 -1.953125 0.921875q-0.765625 0.90625 -0.765625 2.5l0 4.40625l-1.234375 0l0 -6.890625q0 -1.0625 -0.09375 -1.84375l1.265625 0q0.0625 0.53125 0.0625 1.40625l0.03125 0q0.40625 -0.734375 1.234375 -1.171875q0.828125 -0.453125 1.703125 -0.453125zm10.107269 0q1.921875 0 3.0625 1.265625q1.140625 1.25 1.140625 3.28125l0 0.375l-7.28125 0q0.140625 1.359375 1.03125 2.25q0.90625 0.890625 2.171875 0.890625q0.84375 0 1.59375 -0.40625q0.765625 -0.40625 1.203125 -1.109375l0.953125 0.78125q-1.484375 1.84375 -3.75 1.84375q-1.9375 0 -3.234375 -1.296875q-1.28125 -1.3125 -1.28125 -3.28125q0 -1.921875 1.265625 -3.25q1.28125 -1.34375 3.125 -1.34375zm2.859375 3.921875q0 -1.296875 -0.78125 -2.046875q-0.78125 -0.75 -2.0625 -0.75q-1.140625 0 -2.078125 0.828125q-0.9375 0.828125 -0.984375 1.96875l5.90625 0zm7.685364 -3.921875q1.96875 0 3.265625 1.515625l-1.015625 0.765625q-0.796875 -1.15625 -2.21875 -1.15625q-1.453125 0 -2.359375 0.96875q-0.890625 0.96875 -0.890625 2.5q0 1.5625 0.890625 2.515625q0.90625 0.953125 2.296875 0.953125q1.5 0 2.28125 -1.15625l1.015625 0.765625q-1.25 1.5 -3.3125 1.5q-2.015625 0 -3.265625 -1.296875q-1.25 -1.3125 -1.25 -3.28125q0 -2.015625 1.265625 -3.296875q1.28125 -1.296875 3.296875 -1.296875zm6.8829346 -2.234375l0 2.453125l2.515625 0l0 1.125l-2.515625 0l0 5.21875q0 0.71875 0.265625 1.109375q0.265625 0.390625 1.0 0.390625q0.640625 0 1.265625 -0.34375l0.0625 1.140625q-0.734375 0.3125 -1.671875 0.3125q-1.015625 0 -1.59375 -0.59375q-0.5625 -0.59375 -0.5625 -1.65625l0 -5.578125l-1.84375 0l0 -1.125l1.84375 0l0 -2.453125l1.234375 0zm8.131409 2.234375q1.921875 0 3.0625 1.265625q1.140625 1.25 1.140625 3.28125l0 0.375l-7.28125 0q0.140625 1.359375 1.03125 2.25q0.90625 0.890625 2.171875 0.890625q0.84375 0 1.59375 -0.40625q0.765625 -0.40625 1.203125 -1.109375l0.953125 0.78125q-1.484375 1.84375 -3.75 1.84375q-1.9375 0 -3.234375 -1.296875q-1.28125 -1.3125 -1.28125 -3.28125q0 -1.921875 1.265625 -3.25q1.28125 -1.34375 3.125 -1.34375zm2.859375 3.921875q0 -1.296875 -0.78125 -2.046875q-0.78125 -0.75 -2.0625 -0.75q-1.140625 0 -2.078125 0.828125q-0.9375 0.828125 -0.984375 1.96875l5.90625 0zm12.294739 -9.078125l0 14.109375l-1.234375 0l0 -1.453125l-0.046875 0q-0.546875 0.796875 -1.484375 1.234375q-0.9375 0.4375 -1.90625 0.4375q-2.03125 0 -3.34375 -1.3125q-1.296875 -1.328125 -1.296875 -3.265625q0 -1.953125 1.296875 -3.265625q1.3125 -1.328125 3.34375 -1.328125q1.015625 0 1.9375 0.453125q0.921875 0.4375 1.453125 1.21875l0.046875 0l0 -6.828125l1.234375 0zm-7.96875 9.75q0 1.546875 0.921875 2.515625q0.9375 0.953125 2.375 0.953125q1.5 0 2.484375 -1.0q1.0 -1.015625 1.0 -2.46875q0 -1.46875 -1.0 -2.46875q-0.984375 -1.0 -2.5 -1.0q-1.421875 0 -2.359375 0.984375q-0.921875 0.96875 -0.921875 2.484375zm19.194763 -8.734375q-1.421875 2.34375 -1.953125 3.984375q-0.515625 1.640625 -0.515625 3.734375q0 1.9375 0.4375 3.515625q0.4375 1.5625 1.953125 4.09375l-0.984375 0.75q-1.25 -1.75 -1.953125 -3.953125q-0.6875 -2.21875 -0.6875 -4.40625q0 -2.203125 0.703125 -4.375q0.703125 -2.171875 2.015625 -3.984375l0.984375 0.640625zm6.647522 -0.109375l0 13.203125l-1.34375 0l0 -11.53125l-2.390625 2.09375l-0.828125 -1.015625l3.359375 -2.75l1.203125 0zm9.060364 -0.234375q1.84375 0 2.90625 0.953125q1.078125 0.953125 1.078125 2.59375q0 0.984375 -0.5 1.9375q-0.5 0.9375 -2.0 2.4375l-4.328125 4.28125l6.953125 0l0 1.234375l-8.40625 0l0 -1.546875q3.46875 -3.53125 5.25 -5.328125q1.78125 -1.8125 1.6875 -3.015625q0 -1.015625 -0.71875 -1.65625q-0.703125 -0.65625 -1.828125 -0.65625q-0.96875 0 -1.6875 0.5625q-0.703125 0.546875 -0.9375 1.515625l-1.421875 -0.15625q0.265625 -1.453125 1.359375 -2.296875q1.09375 -0.859375 2.59375 -0.859375zm10.372864 0q1.5625 0 2.609375 0.96875q1.046875 0.96875 1.078125 2.484375q0 0.96875 -0.546875 1.8125q-0.53125 0.828125 -1.421875 1.140625l0 0.03125q1.109375 0.328125 1.78125 1.265625q0.671875 0.9375 0.671875 2.203125q0 1.609375 -1.21875 2.671875q-1.203125 1.0625 -2.953125 1.078125q-1.75 0 -2.96875 -1.078125q-1.21875 -1.09375 -1.21875 -2.671875q0 -1.28125 0.671875 -2.21875q0.671875 -0.953125 1.796875 -1.25l0 -0.03125q-0.84375 -0.296875 -1.40625 -1.125q-0.5625 -0.84375 -0.5625 -1.828125q0 -1.453125 1.0625 -2.453125q1.078125 -1.0 2.625 -1.0zm-2.359375 3.5625q0 1.0 0.6875 1.671875q0.703125 0.671875 1.671875 0.671875q1.0 0 1.671875 -0.671875q0.671875 -0.671875 0.671875 -1.671875q0 -0.984375 -0.65625 -1.640625q-0.65625 -0.671875 -1.703125 -0.6875q-1.0 0 -1.65625 0.671875q-0.640625 0.65625 -0.6875 1.65625zm-0.484375 6.15625q0 1.203125 0.8125 1.96875q0.8125 0.75 2.03125 0.75q1.265625 0 2.046875 -0.78125q0.78125 -0.78125 0.78125 -1.9375q0 -1.203125 -0.796875 -1.953125q-0.796875 -0.75 -2.046875 -0.75q-1.234375 0 -2.03125 0.765625q-0.796875 0.75 -0.796875 1.9375zm9.247925 -10.015625q1.265625 1.8125 1.9375 3.984375q0.6875 2.171875 0.6875 4.375q0 2.234375 -0.703125 4.390625q-0.703125 2.15625 -2.0 3.96875l-0.984375 -0.640625q1.453125 -2.4375 1.953125 -4.0625q0.5 -1.640625 0.5 -3.65625q0 -2.015625 -0.46875 -3.578125q-0.46875 -1.5625 -1.921875 -4.03125l1.0 -0.75z" fill-rule="nonzero"/><path fill="#c9daf8" d="m247.37007 410.99213l465.2599 0l0 42.015747l-465.2599 0z" fill-rule="evenodd"/><path fill="#000000" d="m405.91812 424.70898l0 1.21875l-6.609375 0l0 4.5l6.15625 0l0 1.234375l-6.15625 0l0 6.25l-1.34375 0l0 -13.203125l7.953125 0zm3.2009888 4.46875l0 4.921875q0 1.515625 0.546875 2.21875q0.546875 0.703125 1.796875 0.703125q1.140625 0 1.90625 -0.921875q0.765625 -0.9375 0.765625 -2.359375l0 -4.5625l1.234375 0l0 6.890625q0.03125 1.046875 0.09375 1.84375l-1.265625 0q-0.0625 -0.703125 -0.0625 -1.40625l-0.03125 0q-0.46875 0.765625 -1.296875 1.203125q-0.8125 0.421875 -1.640625 0.421875q-1.703125 0 -2.5 -0.90625q-0.78125 -0.921875 -0.78125 -2.421875l0 -5.625l1.234375 0zm10.654144 -5.375l0 14.109375l-1.234375 0l0 -14.109375l1.234375 0zm4.496155 0l0 14.109375l-1.234375 0l0 -14.109375l1.234375 0zm3.4618835 5.375l2.75 7.21875l2.65625 -7.21875l1.5 0l-4.25 10.75q-0.5 1.3125 -1.140625 1.890625q-0.640625 0.578125 -1.734375 0.578125q-0.59375 0 -1.125 -0.140625l0.140625 -1.1875q0.40625 0.203125 0.921875 0.203125q1.09375 0 1.59375 -1.34375l0.71875 -1.90625l-3.578125 -8.84375l1.546875 0zm17.788116 -0.21875q1.96875 0 3.265625 1.515625l-1.015625 0.765625q-0.796875 -1.15625 -2.21875 -1.15625q-1.453125 0 -2.359375 0.96875q-0.890625 0.96875 -0.890625 2.5q0 1.5625 0.890625 2.515625q0.90625 0.953125 2.296875 0.953125q1.5 0 2.28125 -1.15625l1.015625 0.765625q-1.25 1.5 -3.3125 1.5q-2.015625 0 -3.265625 -1.296875q-1.25 -1.3125 -1.25 -3.28125q0 -2.015625 1.265625 -3.296875q1.28125 -1.296875 3.296875 -1.296875zm9.05481 0q1.984375 0 3.3125 1.296875q1.34375 1.28125 1.34375 3.296875q0 1.96875 -1.296875 3.28125q-1.296875 1.296875 -3.359375 1.296875q-2.015625 0 -3.328125 -1.296875q-1.296875 -1.3125 -1.296875 -3.28125q0 -1.953125 1.296875 -3.265625q1.3125 -1.328125 3.328125 -1.328125zm-3.28125 4.59375q0 1.5 0.90625 2.484375q0.90625 0.984375 2.375 0.984375q1.5 0 2.40625 -1.0q0.90625 -1.0 0.90625 -2.46875q0 -1.546875 -0.9375 -2.5q-0.9375 -0.96875 -2.390625 -0.96875q-1.46875 0 -2.375 1.0q-0.890625 0.984375 -0.890625 2.46875zm14.375671 -4.59375q1.640625 0 2.453125 0.875q0.828125 0.875 0.828125 2.46875l0 5.609375l-1.234375 0l0 -4.921875q0 -1.484375 -0.546875 -2.1875q-0.53125 -0.71875 -1.75 -0.71875q-1.1875 0 -1.953125 0.921875q-0.765625 0.90625 -0.765625 2.5l0 4.40625l-1.234375 0l0 -6.890625q0 -1.0625 -0.09375 -1.84375l1.265625 0q0.0625 0.53125 0.0625 1.40625l0.03125 0q0.40625 -0.734375 1.234375 -1.171875q0.828125 -0.453125 1.703125 -0.453125zm10.372864 0q1.640625 0 2.453125 0.875q0.828125 0.875 0.828125 2.46875l0 5.609375l-1.234375 0l0 -4.921875q0 -1.484375 -0.546875 -2.1875q-0.53125 -0.71875 -1.75 -0.71875q-1.1875 0 -1.953125 0.921875q-0.765625 0.90625 -0.765625 2.5l0 4.40625l-1.234375 0l0 -6.890625q0 -1.0625 -0.09375 -1.84375l1.265625 0q0.0625 0.53125 0.0625 1.40625l0.03125 0q0.40625 -0.734375 1.234375 -1.171875q0.828125 -0.453125 1.703125 -0.453125zm10.107269 0q1.921875 0 3.0625 1.265625q1.140625 1.25 1.140625 3.28125l0 0.375l-7.28125 0q0.140625 1.359375 1.03125 2.25q0.90625 0.890625 2.171875 0.890625q0.84375 0 1.59375 -0.40625q0.765625 -0.40625 1.203125 -1.109375l0.953125 0.78125q-1.484375 1.84375 -3.75 1.84375q-1.9375 0 -3.234375 -1.296875q-1.28125 -1.3125 -1.28125 -3.28125q0 -1.921875 1.265625 -3.25q1.28125 -1.34375 3.125 -1.34375zm2.859375 3.921875q0 -1.296875 -0.78125 -2.046875q-0.78125 -0.75 -2.0625 -0.75q-1.140625 0 -2.078125 0.828125q-0.9375 0.828125 -0.984375 1.96875l5.90625 0zm7.685364 -3.921875q1.96875 0 3.265625 1.515625l-1.015625 0.765625q-0.796875 -1.15625 -2.21875 -1.15625q-1.453125 0 -2.359375 0.96875q-0.890625 0.96875 -0.890625 2.5q0 1.5625 0.890625 2.515625q0.90625 0.953125 2.296875 0.953125q1.5 0 2.28125 -1.15625l1.015625 0.765625q-1.25 1.5 -3.3125 1.5q-2.015625 0 -3.265625 -1.296875q-1.25 -1.3125 -1.25 -3.28125q0 -2.015625 1.265625 -3.296875q1.28125 -1.296875 3.296875 -1.296875zm6.8829346 -2.234375l0 2.453125l2.515625 0l0 1.125l-2.515625 0l0 5.21875q0 0.71875 0.265625 1.109375q0.265625 0.390625 1.0 0.390625q0.640625 0 1.265625 -0.34375l0.0625 1.140625q-0.734375 0.3125 -1.671875 0.3125q-1.015625 0 -1.59375 -0.59375q-0.5625 -0.59375 -0.5625 -1.65625l0 -5.578125l-1.84375 0l0 -1.125l1.84375 0l0 -2.453125l1.234375 0zm8.131409 2.234375q1.9218445 0 3.0624695 1.265625q1.140625 1.25 1.140625 3.28125l0 0.375l-7.2812195 0q0.140625 1.359375 1.03125 2.25q0.90625 0.890625 2.171875 0.890625q0.8437195 0 1.5937195 -0.40625q0.765625 -0.40625 1.203125 -1.109375l0.953125 0.78125q-1.484375 1.84375 -3.7499695 1.84375q-1.9375 0 -3.234375 -1.296875q-1.28125 -1.3125 -1.28125 -3.28125q0 -1.921875 1.265625 -3.25q1.28125 -1.34375 3.125 -1.34375zm2.8593445 3.921875q0 -1.296875 -0.78125 -2.046875q-0.78125 -0.75 -2.0624695 -0.75q-1.140625 0 -2.078125 0.828125q-0.9375 0.828125 -0.984375 1.96875l5.9062195 0zm12.294739 -9.078125l0 14.109375l-1.234375 0l0 -1.453125l-0.046875 0q-0.546875 0.796875 -1.484375 1.234375q-0.9375 0.4375 -1.90625 0.4375q-2.03125 0 -3.34375 -1.3125q-1.296875 -1.328125 -1.296875 -3.265625q0 -1.953125 1.296875 -3.265625q1.3125 -1.328125 3.34375 -1.328125q1.015625 0 1.9375 0.453125q0.921875 0.4375 1.453125 1.21875l0.046875 0l0 -6.828125l1.234375 0zm-7.96875 9.75q0 1.546875 0.921875 2.515625q0.9375 0.953125 2.375 0.953125q1.5 0 2.484375 -1.0q1.0 -1.015625 1.0 -2.46875q0 -1.46875 -1.0 -2.46875q-0.984375 -1.0 -2.5 -1.0q-1.421875 0 -2.359375 0.984375q-0.921875 0.96875 -0.921875 2.484375zm19.194763 -8.734375q-1.421875 2.34375 -1.953125 3.984375q-0.515625 1.640625 -0.515625 3.734375q0 1.9375 0.4375 3.515625q0.4375 1.5625 1.953125 4.09375l-0.984375 0.75q-1.25 -1.75 -1.953125 -3.953125q-0.6875 -2.21875 -0.6875 -4.40625q0 -2.203125 0.703125 -4.375q0.703125 -2.171875 2.015625 -3.984375l0.984375 0.640625zm7.335022 -0.109375l-3.609375 5.671875l0.046875 0.03125q0.671875 -0.453125 1.828125 -0.453125q1.734375 0 2.859375 1.171875q1.125 1.171875 1.171875 2.921875q0 1.828125 -1.234375 2.953125q-1.21875 1.109375 -3.0625 1.125q-1.859375 0 -3.0625 -1.140625q-1.203125 -1.15625 -1.234375 -2.953125q0 -1.046875 0.328125 -1.9375q0.34375 -0.90625 1.390625 -2.546875l2.984375 -4.84375l1.59375 0zm-4.953125 9.34375q0 1.234375 0.8125 2.03125q0.828125 0.796875 2.140625 0.828125q1.28125 0 2.109375 -0.796875q0.84375 -0.8125 0.84375 -2.0625q0 -1.234375 -0.8125 -2.046875q-0.796875 -0.8125 -2.15625 -0.8125q-1.25 0 -2.09375 0.78125q-0.828125 0.78125 -0.84375 2.078125zm15.904114 -9.34375l0 8.84375l1.890625 0l0 1.21875l-1.890625 0l0 3.140625l-1.34375 0l0 -3.140625l-5.71875 0l0 -1.53125l5.34375 -8.53125l1.71875 0zm-1.390625 1.34375l-4.546875 7.5l4.59375 0l0 -7.5l-0.046875 0zm5.216675 -1.875q1.265625 1.8125 1.9375 3.984375q0.6875 2.171875 0.6875 4.375q0 2.234375 -0.703125 4.390625q-0.703125 2.15625 -2.0 3.96875l-0.984375 -0.640625q1.453125 -2.4375 1.953125 -4.0625q0.5 -1.640625 0.5 -3.65625q0 -2.015625 -0.46875 -3.578125q-0.46875 -1.5625 -1.921875 -4.03125l1.0 -0.75z" fill-rule="nonzero"/><path fill="#c9daf8" d="m300.7874 655.0617l358.42517 0l0 42.015747l-358.42517 0z" fill-rule="evenodd"/><path fill="#000000" d="m411.10455 668.77856l0 1.21875l-6.609375 0l0 4.5l6.15625 0l0 1.234375l-6.15625 0l0 6.25l-1.34375 0l0 -13.203125l7.953125 0zm3.2010193 4.46875l0 4.921875q0 1.515625 0.546875 2.21875q0.546875 0.703125 1.796875 0.703125q1.140625 0 1.90625 -0.921875q0.765625 -0.9375 0.765625 -2.359375l0 -4.5625l1.234375 0l0 6.890625q0.03125 1.046875 0.09375 1.84375l-1.265625 0q-0.0625 -0.703125 -0.0625 -1.40625l-0.03125 0q-0.46875 0.765625 -1.296875 1.203125q-0.8125 0.421875 -1.640625 0.421875q-1.703125 0 -2.5 -0.90625q-0.78125 -0.921875 -0.78125 -2.421875l0 -5.625l1.234375 0zm10.654114 -5.375l0 14.109375l-1.234375 0l0 -14.109375l1.234375 0zm4.4961853 0l0 14.109375l-1.234375 0l0 -14.109375l1.234375 0zm3.4618835 5.375l2.75 7.21875l2.65625 -7.21875l1.5 0l-4.25 10.75q-0.5 1.3125 -1.140625 1.890625q-0.640625 0.578125 -1.734375 0.578125q-0.59375 0 -1.125 -0.140625l0.140625 -1.1875q0.40625 0.203125 0.921875 0.203125q1.09375 0 1.59375 -1.34375l0.71875 -1.90625l-3.578125 -8.84375l1.546875 0zm17.788116 -0.21875q1.96875 0 3.265625 1.515625l-1.015625 0.765625q-0.796875 -1.15625 -2.21875 -1.15625q-1.453125 0 -2.359375 0.96875q-0.890625 0.96875 -0.890625 2.5q0 1.5625 0.890625 2.515625q0.90625 0.953125 2.296875 0.953125q1.5 0 2.28125 -1.15625l1.015625 0.765625q-1.25 1.5 -3.3125 1.5q-2.015625 0 -3.265625 -1.296875q-1.25 -1.3125 -1.25 -3.28125q0 -2.015625 1.265625 -3.296875q1.28125 -1.296875 3.296875 -1.296875zm9.05481 0q1.984375 0 3.3125 1.296875q1.34375 1.28125 1.34375 3.296875q0 1.96875 -1.296875 3.28125q-1.296875 1.296875 -3.359375 1.296875q-2.015625 0 -3.328125 -1.296875q-1.296875 -1.3125 -1.296875 -3.28125q0 -1.953125 1.296875 -3.265625q1.3125 -1.328125 3.328125 -1.328125zm-3.28125 4.59375q0 1.5 0.90625 2.484375q0.90625 0.984375 2.375 0.984375q1.5 0 2.40625 -1.0q0.90625 -1.0 0.90625 -2.46875q0 -1.546875 -0.9375 -2.5q-0.9375 -0.96875 -2.390625 -0.96875q-1.46875 0 -2.375 1.0q-0.890625 0.984375 -0.890625 2.46875zm14.375641 -4.59375q1.640625 0 2.453125 0.875q0.828125 0.875 0.828125 2.46875l0 5.609375l-1.234375 0l0 -4.921875q0 -1.484375 -0.546875 -2.1875q-0.53125 -0.71875 -1.75 -0.71875q-1.1875 0 -1.953125 0.921875q-0.765625 0.90625 -0.765625 2.5l0 4.40625l-1.234375 0l0 -6.890625q0 -1.0625 -0.09375 -1.84375l1.265625 0q0.0625 0.53125 0.0625 1.40625l0.03125 0q0.40625 -0.734375 1.234375 -1.171875q0.828125 -0.453125 1.703125 -0.453125zm10.372894 0q1.640625 0 2.453125 0.875q0.828125 0.875 0.828125 2.46875l0 5.609375l-1.234375 0l0 -4.921875q0 -1.484375 -0.546875 -2.1875q-0.53125 -0.71875 -1.75 -0.71875q-1.1875 0 -1.953125 0.921875q-0.765625 0.90625 -0.765625 2.5l0 4.40625l-1.234375 0l0 -6.890625q0 -1.0625 -0.09375 -1.84375l1.265625 0q0.0625 0.53125 0.0625 1.40625l0.03125 0q0.40625 -0.734375 1.234375 -1.171875q0.828125 -0.453125 1.703125 -0.453125zm10.107239 0q1.921875 0 3.0625 1.265625q1.140625 1.25 1.140625 3.28125l0 0.375l-7.28125 0q0.140625 1.359375 1.03125 2.25q0.90625 0.890625 2.171875 0.890625q0.84375 0 1.59375 -0.40625q0.765625 -0.40625 1.203125 -1.109375l0.953125 0.78125q-1.484375 1.84375 -3.75 1.84375q-1.9375 0 -3.234375 -1.296875q-1.28125 -1.3125 -1.28125 -3.28125q0 -1.921875 1.265625 -3.25q1.28125 -1.34375 3.125 -1.34375zm2.859375 3.921875q0 -1.296875 -0.78125 -2.046875q-0.78125 -0.75 -2.0625 -0.75q-1.140625 0 -2.078125 0.828125q-0.9375 0.828125 -0.984375 1.96875l5.90625 0zm7.6853943 -3.921875q1.96875 0 3.265625 1.515625l-1.015625 0.765625q-0.796875 -1.15625 -2.21875 -1.15625q-1.453125 0 -2.359375 0.96875q-0.890625 0.96875 -0.890625 2.5q0 1.5625 0.890625 2.515625q0.90625 0.953125 2.296875 0.953125q1.5 0 2.28125 -1.15625l1.015625 0.765625q-1.25 1.5 -3.3125 1.5q-2.015625 0 -3.265625 -1.296875q-1.25 -1.3125 -1.25 -3.28125q0 -2.015625 1.265625 -3.296875q1.28125 -1.296875 3.296875 -1.296875zm6.8829346 -2.234375l0 2.453125l2.515625 0l0 1.125l-2.515625 0l0 5.21875q0 0.71875 0.265625 1.109375q0.265625 0.390625 1.0 0.390625q0.640625 0 1.265625 -0.34375l0.0625 1.140625q-0.734375 0.3125 -1.671875 0.3125q-1.015625 0 -1.59375 -0.59375q-0.5625 -0.59375 -0.5625 -1.65625l0 -5.578125l-1.84375 0l0 -1.125l1.84375 0l0 -2.453125l1.234375 0zm8.131378 2.234375q1.921875 0 3.0625 1.265625q1.140625 1.25 1.140625 3.28125l0 0.375l-7.28125 0q0.140625 1.359375 1.03125 2.25q0.90625 0.890625 2.171875 0.890625q0.84375 0 1.59375 -0.40625q0.765625 -0.40625 1.203125 -1.109375l0.953125 0.78125q-1.484375 1.84375 -3.75 1.84375q-1.9375 0 -3.234375 -1.296875q-1.28125 -1.3125 -1.28125 -3.28125q0 -1.921875 1.265625 -3.25q1.28125 -1.34375 3.125 -1.34375zm2.859375 3.921875q0 -1.296875 -0.78125 -2.046875q-0.78125 -0.75 -2.0625 -0.75q-1.140625 0 -2.078125 0.828125q-0.9375 0.828125 -0.984375 1.96875l5.90625 0zm12.294739 -9.078125l0 14.109375l-1.234375 0l0 -1.453125l-0.046875 0q-0.546875 0.796875 -1.484375 1.234375q-0.9375 0.4375 -1.90625 0.4375q-2.03125 0 -3.34375 -1.3125q-1.296875 -1.328125 -1.296875 -3.265625q0 -1.953125 1.296875 -3.265625q1.3125 -1.328125 3.34375 -1.328125q1.015625 0 1.9375 0.453125q0.921875 0.4375 1.453125 1.21875l0.046875 0l0 -6.828125l1.234375 0zm-7.96875 9.75q0 1.546875 0.921875 2.515625q0.9375 0.953125 2.375 0.953125q1.5 0 2.484375 -1.0q1.0 -1.015625 1.0 -2.46875q0 -1.46875 -1.0 -2.46875q-0.984375 -1.0 -2.5 -1.0q-1.421875 0 -2.359375 0.984375q-0.921875 0.96875 -0.921875 2.484375zm19.194763 -8.734375q-1.421875 2.34375 -1.953125 3.984375q-0.515625 1.640625 -0.515625 3.734375q0 1.9375 0.4375 3.515625q0.4375 1.5625 1.953125 4.09375l-0.984375 0.75q-1.25 -1.75 -1.953125 -3.953125q-0.6875 -2.21875 -0.6875 -4.40625q0 -2.203125 0.703125 -4.375q0.703125 -2.171875 2.015625 -3.984375l0.984375 0.640625zm5.335022 -0.34375q1.5625 0 2.609375 0.96875q1.046875 0.96875 1.078125 2.484375q0 0.96875 -0.546875 1.8125q-0.53125 0.828125 -1.421875 1.140625l0 0.03125q1.109375 0.328125 1.78125 1.265625q0.671875 0.9375 0.671875 2.203125q0 1.609375 -1.21875 2.671875q-1.203125 1.0625 -2.953125 1.078125q-1.75 0 -2.96875 -1.078125q-1.21875 -1.09375 -1.21875 -2.671875q0 -1.28125 0.671875 -2.21875q0.671875 -0.953125 1.796875 -1.25l0 -0.03125q-0.84375 -0.296875 -1.40625 -1.125q-0.5625 -0.84375 -0.5625 -1.828125q0 -1.453125 1.0625 -2.453125q1.078125 -1.0 2.625 -1.0zm-2.359375 3.5625q0 1.0 0.6875 1.671875q0.703125 0.671875 1.671875 0.671875q1.0 0 1.671875 -0.671875q0.671875 -0.671875 0.671875 -1.671875q0 -0.984375 -0.65625 -1.640625q-0.65625 -0.671875 -1.703125 -0.6875q-1.0 0 -1.65625 0.671875q-0.640625 0.65625 -0.6875 1.65625zm-0.484375 6.15625q0 1.203125 0.8125 1.96875q0.8125 0.75 2.03125 0.75q1.265625 0 2.046875 -0.78125q0.78125 -0.78125 0.78125 -1.9375q0 -1.203125 -0.796875 -1.953125q-0.796875 -0.75 -2.046875 -0.75q-1.234375 0 -2.03125 0.765625q-0.796875 0.75 -0.796875 1.9375zm9.247864 -10.015625q1.265625 1.8125 1.9375 3.984375q0.6875 2.171875 0.6875 4.375q0 2.234375 -0.703125 4.390625q-0.703125 2.15625 -2.0 3.96875l-0.984375 -0.640625q1.453125 -2.4375 1.953125 -4.0625q0.5 -1.640625 0.5 -3.65625q0 -2.015625 -0.46875 -3.578125q-0.46875 -1.5625 -1.921875 -4.03125l1.0 -0.75z" fill-rule="nonzero"/><path fill="#c9daf8" d="m264.9449 492.3491l430.11023 0l0 42.015717l-430.11023 0z" fill-rule="evenodd"/><path fill="#000000" d="m405.91812 506.06595l0 1.21875l-6.609375 0l0 4.5l6.15625 0l0 1.2344055l-6.15625 0l0 6.25l-1.34375 0l0 -13.2031555l7.953125 0zm3.2009888 4.46875l0 4.9219055q0 1.515625 0.546875 2.21875q0.546875 0.703125 1.796875 0.703125q1.140625 0 1.90625 -0.921875q0.765625 -0.9375 0.765625 -2.359375l0 -4.5625305l1.234375 0l0 6.8906555q0.03125 1.046875 0.09375 1.84375l-1.265625 0q-0.0625 -0.703125 -0.0625 -1.40625l-0.03125 0q-0.46875 0.765625 -1.296875 1.203125q-0.8125 0.421875 -1.640625 0.421875q-1.703125 0 -2.5 -0.90625q-0.78125 -0.921875 -0.78125 -2.421875l0 -5.6250305l1.234375 0zm10.654144 -5.375l0 14.1094055l-1.234375 0l0 -14.1094055l1.234375 0zm4.496155 0l0 14.1094055l-1.234375 0l0 -14.1094055l1.234375 0zm3.4618835 5.375l2.75 7.2187805l2.65625 -7.2187805l1.5 0l-4.25 10.7500305q-0.5 1.3125 -1.140625 1.890625q-0.640625 0.578125 -1.734375 0.578125q-0.59375 0 -1.125 -0.140625l0.140625 -1.1875q0.40625 0.203125 0.921875 0.203125q1.09375 0 1.59375 -1.34375l0.71875 -1.90625l-3.578125 -8.8437805l1.546875 0zm17.788116 -0.21875q1.96875 0 3.265625 1.515625l-1.015625 0.7656555q-0.796875 -1.1562805 -2.21875 -1.1562805q-1.453125 0 -2.359375 0.9687805q-0.890625 0.96875 -0.890625 2.5q0 1.5625 0.890625 2.515625q0.90625 0.953125 2.296875 0.953125q1.5 0 2.28125 -1.15625l1.015625 0.765625q-1.25 1.5 -3.3125 1.5q-2.015625 0 -3.265625 -1.296875q-1.25 -1.3125 -1.25 -3.28125q0 -2.015625 1.265625 -3.2969055q1.28125 -1.296875 3.296875 -1.296875zm9.05481 0q1.984375 0 3.3125 1.296875q1.34375 1.2812805 1.34375 3.2969055q0 1.96875 -1.296875 3.28125q-1.296875 1.296875 -3.359375 1.296875q-2.015625 0 -3.328125 -1.296875q-1.296875 -1.3125 -1.296875 -3.28125q0 -1.953125 1.296875 -3.2656555q1.3125 -1.328125 3.328125 -1.328125zm-3.28125 4.5937805q0 1.5 0.90625 2.484375q0.90625 0.984375 2.375 0.984375q1.5 0 2.40625 -1.0q0.90625 -1.0 0.90625 -2.46875q0 -1.546875 -0.9375 -2.5q-0.9375 -0.9687805 -2.390625 -0.9687805q-1.46875 0 -2.375 1.0000305q-0.890625 0.984375 -0.890625 2.46875zm14.375671 -4.5937805q1.640625 0 2.453125 0.875q0.828125 0.8750305 0.828125 2.4687805l0 5.609375l-1.234375 0l0 -4.921875q0 -1.484375 -0.546875 -2.1875q-0.53125 -0.7187805 -1.75 -0.7187805q-1.1875 0 -1.953125 0.9219055q-0.765625 0.90625 -0.765625 2.5l0 4.40625l-1.234375 0l0 -6.890625q0 -1.0625305 -0.09375 -1.8437805l1.265625 0q0.0625 0.53125 0.0625 1.40625l0.03125 0q0.40625 -0.734375 1.234375 -1.171875q0.828125 -0.453125 1.703125 -0.453125zm10.372864 0q1.640625 0 2.453125 0.875q0.828125 0.8750305 0.828125 2.4687805l0 5.609375l-1.234375 0l0 -4.921875q0 -1.484375 -0.546875 -2.1875q-0.53125 -0.7187805 -1.75 -0.7187805q-1.1875 0 -1.953125 0.9219055q-0.765625 0.90625 -0.765625 2.5l0 4.40625l-1.234375 0l0 -6.890625q0 -1.0625305 -0.09375 -1.8437805l1.265625 0q0.0625 0.53125 0.0625 1.40625l0.03125 0q0.40625 -0.734375 1.234375 -1.171875q0.828125 -0.453125 1.703125 -0.453125zm10.107269 0q1.921875 0 3.0625 1.265625q1.140625 1.2500305 1.140625 3.2812805l0 0.375l-7.28125 0q0.140625 1.359375 1.03125 2.25q0.90625 0.890625 2.171875 0.890625q0.84375 0 1.59375 -0.40625q0.765625 -0.40625 1.203125 -1.109375l0.953125 0.78125q-1.484375 1.84375 -3.75 1.84375q-1.9375 0 -3.234375 -1.296875q-1.28125 -1.3125 -1.28125 -3.28125q0 -1.921875 1.265625 -3.2500305q1.28125 -1.34375 3.125 -1.34375zm2.859375 3.9219055q0 -1.296875 -0.78125 -2.046875q-0.78125 -0.7500305 -2.0625 -0.7500305q-1.140625 0 -2.078125 0.8281555q-0.9375 0.828125 -0.984375 1.96875l5.90625 0zm7.685364 -3.9219055q1.96875 0 3.265625 1.515625l-1.015625 0.7656555q-0.796875 -1.1562805 -2.21875 -1.1562805q-1.453125 0 -2.359375 0.9687805q-0.890625 0.96875 -0.890625 2.5q0 1.5625 0.890625 2.515625q0.90625 0.953125 2.296875 0.953125q1.5 0 2.28125 -1.15625l1.015625 0.765625q-1.25 1.5 -3.3125 1.5q-2.015625 0 -3.265625 -1.296875q-1.25 -1.3125 -1.25 -3.28125q0 -2.015625 1.265625 -3.2969055q1.28125 -1.296875 3.296875 -1.296875zm6.8829346 -2.234375l0 2.453125l2.515625 0l0 1.125l-2.515625 0l0 5.2187805q0 0.71875 0.265625 1.109375q0.265625 0.390625 1.0 0.390625q0.640625 0 1.265625 -0.34375l0.0625 1.140625q-0.734375 0.3125 -1.671875 0.3125q-1.015625 0 -1.59375 -0.59375q-0.5625 -0.59375 -0.5625 -1.65625l0 -5.5781555l-1.84375 0l0 -1.125l1.84375 0l0 -2.453125l1.234375 0zm8.131378 2.234375q1.921875 0 3.0625 1.265625q1.140625 1.2500305 1.140625 3.2812805l0 0.375l-7.28125 0q0.140625 1.359375 1.03125 2.25q0.90625 0.890625 2.171875 0.890625q0.84375 0 1.59375 -0.40625q0.765625 -0.40625 1.203125 -1.109375l0.953125 0.78125q-1.484375 1.84375 -3.75 1.84375q-1.9375 0 -3.234375 -1.296875q-1.28125 -1.3125 -1.28125 -3.28125q0 -1.921875 1.265625 -3.2500305q1.28125 -1.34375 3.125 -1.34375zm2.859375 3.9219055q0 -1.296875 -0.78125 -2.046875q-0.78125 -0.7500305 -2.0625 -0.7500305q-1.140625 0 -2.078125 0.8281555q-0.9375 0.828125 -0.984375 1.96875l5.90625 0zm12.294739 -9.0781555l0 14.1094055l-1.234375 0l0 -1.453125l-0.046875 0q-0.546875 0.796875 -1.484375 1.234375q-0.9375 0.4375 -1.90625 0.4375q-2.03125 0 -3.34375 -1.3125q-1.296875 -1.328125 -1.296875 -3.265625q0 -1.953125 1.296875 -3.2656555q1.3125 -1.328125 3.34375 -1.328125q1.015625 0 1.9375 0.453125q0.921875 0.4375 1.453125 1.21875l0.046875 0l0 -6.828125l1.234375 0zm-7.96875 9.7500305q0 1.546875 0.921875 2.515625q0.9375 0.953125 2.375 0.953125q1.5 0 2.484375 -1.0q1.0 -1.015625 1.0 -2.46875q0 -1.46875 -1.0 -2.46875q-0.984375 -1.0000305 -2.5 -1.0000305q-1.421875 0 -2.359375 0.9844055q-0.921875 0.96875 -0.921875 2.484375zm19.194824 -8.7344055q-1.421875 2.34375 -1.953125 3.984375q-0.515625 1.640625 -0.515625 3.7344055q0 1.9375 0.4375 3.515625q0.4375 1.5625 1.953125 4.09375l-0.984375 0.75q-1.25 -1.75 -1.953125 -3.953125q-0.6875 -2.21875 -0.6875 -4.40625q0 -2.2031555 0.703125 -4.3750305q0.703125 -2.171875 2.015625 -3.984375l0.984375 0.640625zm5.053711 -0.34375q1.640625 0 2.734375 0.953125q1.09375 0.953125 1.09375 2.46875q0 1.0 -0.625 1.84375q-0.609375 0.84375 -1.640625 1.1875305q1.234375 0.3125 1.921875 1.25q0.6875 0.921875 0.6875 2.15625q0 1.671875 -1.1875 2.734375q-1.171875 1.0625 -3.015625 1.0625q-3.125 0 -4.171875 -2.65625l1.421875 -0.4375q0.359375 0.96875 1.03125 1.421875q0.6875 0.453125 1.828125 0.453125q1.140625 0 1.953125 -0.75q0.8125 -0.75 0.8125 -1.875q0 -2.640625 -3.625 -2.6875l-0.3125 0l0 -1.2187805l0.515625 0q3.015625 0 3.0625 -2.4375q0 -1.078125 -0.640625 -1.65625q-0.625 -0.578125 -1.8125 -0.578125q-1.6875 0 -2.515625 1.453125l-1.171875 -0.59375q1.15625 -2.09375 3.65625 -2.09375zm10.654175 0q1.84375 0 2.90625 0.953125q1.078125 0.953125 1.078125 2.59375q0 0.984375 -0.5 1.9375q-0.5 0.9375305 -2.0 2.4375305l-4.328125 4.28125l6.953125 0l0 1.234375l-8.40625 0l0 -1.546875q3.46875 -3.53125 5.25 -5.328125q1.78125 -1.8125305 1.6875 -3.0156555q0 -1.015625 -0.71875 -1.65625q-0.703125 -0.65625 -1.828125 -0.65625q-0.96875 0 -1.6875 0.5625q-0.703125 0.546875 -0.9375 1.515625l-1.421875 -0.15625q0.265625 -1.453125 1.359375 -2.296875q1.09375 -0.859375 2.59375 -0.859375zm6.404114 -0.296875q1.265625 1.8125 1.9375 3.984375q0.6875 2.171875 0.6875 4.3750305q0 2.234375 -0.703125 4.390625q-0.703125 2.15625 -2.0 3.96875l-0.984375 -0.640625q1.453125 -2.4375 1.953125 -4.0625q0.5 -1.640625 0.5 -3.65625q0 -2.0156555 -0.46875 -3.5781555q-0.46875 -1.5625 -1.921875 -4.03125l1.0 -0.75z" fill-rule="nonzero"/><path fill="#c9daf8" d="m282.53543 573.70605l394.9291 0l0 42.015747l-394.9291 0z" fill-rule="evenodd"/><path fill="#000000" d="m405.91812 587.4229l0 1.21875l-6.609375 0l0 4.5l6.15625 0l0 1.234375l-6.15625 0l0 6.25l-1.34375 0l0 -13.203125l7.953125 0zm3.2009888 4.46875l0 4.921875q0 1.515625 0.546875 2.21875q0.546875 0.703125 1.796875 0.703125q1.140625 0 1.90625 -0.921875q0.765625 -0.9375 0.765625 -2.359375l0 -4.5625l1.234375 0l0 6.890625q0.03125 1.046875 0.09375 1.84375l-1.265625 0q-0.0625 -0.703125 -0.0625 -1.40625l-0.03125 0q-0.46875 0.765625 -1.296875 1.203125q-0.8125 0.421875 -1.640625 0.421875q-1.703125 0 -2.5 -0.90625q-0.78125 -0.921875 -0.78125 -2.421875l0 -5.625l1.234375 0zm10.654144 -5.375l0 14.109375l-1.234375 0l0 -14.109375l1.234375 0zm4.496155 0l0 14.109375l-1.234375 0l0 -14.109375l1.234375 0zm3.4618835 5.375l2.75 7.21875l2.65625 -7.21875l1.5 0l-4.25 10.75q-0.5 1.3125 -1.140625 1.890625q-0.640625 0.578125 -1.734375 0.578125q-0.59375 0 -1.125 -0.140625l0.140625 -1.1875q0.40625 0.203125 0.921875 0.203125q1.09375 0 1.59375 -1.34375l0.71875 -1.90625l-3.578125 -8.84375l1.546875 0zm17.788116 -0.21875q1.96875 0 3.265625 1.515625l-1.015625 0.765625q-0.796875 -1.15625 -2.21875 -1.15625q-1.453125 0 -2.359375 0.96875q-0.890625 0.96875 -0.890625 2.5q0 1.5625 0.890625 2.515625q0.90625 0.953125 2.296875 0.953125q1.5 0 2.28125 -1.15625l1.015625 0.765625q-1.25 1.5 -3.3125 1.5q-2.015625 0 -3.265625 -1.296875q-1.25 -1.3125 -1.25 -3.28125q0 -2.015625 1.265625 -3.296875q1.28125 -1.296875 3.296875 -1.296875zm9.05481 0q1.984375 0 3.3125 1.296875q1.34375 1.28125 1.34375 3.296875q0 1.96875 -1.296875 3.28125q-1.296875 1.296875 -3.359375 1.296875q-2.015625 0 -3.328125 -1.296875q-1.296875 -1.3125 -1.296875 -3.28125q0 -1.953125 1.296875 -3.265625q1.3125 -1.328125 3.328125 -1.328125zm-3.28125 4.59375q0 1.5 0.90625 2.484375q0.90625 0.984375 2.375 0.984375q1.5 0 2.40625 -1.0q0.90625 -1.0 0.90625 -2.46875q0 -1.546875 -0.9375 -2.5q-0.9375 -0.96875 -2.390625 -0.96875q-1.46875 0 -2.375 1.0q-0.890625 0.984375 -0.890625 2.46875zm14.375671 -4.59375q1.640625 0 2.453125 0.875q0.828125 0.875 0.828125 2.46875l0 5.609375l-1.234375 0l0 -4.921875q0 -1.484375 -0.546875 -2.1875q-0.53125 -0.71875 -1.75 -0.71875q-1.1875 0 -1.953125 0.921875q-0.765625 0.90625 -0.765625 2.5l0 4.40625l-1.234375 0l0 -6.890625q0 -1.0625 -0.09375 -1.84375l1.265625 0q0.0625 0.53125 0.0625 1.40625l0.03125 0q0.40625 -0.734375 1.234375 -1.171875q0.828125 -0.453125 1.703125 -0.453125zm10.372864 0q1.640625 0 2.453125 0.875q0.828125 0.875 0.828125 2.46875l0 5.609375l-1.234375 0l0 -4.921875q0 -1.484375 -0.546875 -2.1875q-0.53125 -0.71875 -1.75 -0.71875q-1.1875 0 -1.953125 0.921875q-0.765625 0.90625 -0.765625 2.5l0 4.40625l-1.234375 0l0 -6.890625q0 -1.0625 -0.09375 -1.84375l1.265625 0q0.0625 0.53125 0.0625 1.40625l0.03125 0q0.40625 -0.734375 1.234375 -1.171875q0.828125 -0.453125 1.703125 -0.453125zm10.107269 0q1.921875 0 3.0625 1.265625q1.140625 1.25 1.140625 3.28125l0 0.375l-7.28125 0q0.140625 1.359375 1.03125 2.25q0.90625 0.890625 2.171875 0.890625q0.84375 0 1.59375 -0.40625q0.765625 -0.40625 1.203125 -1.109375l0.953125 0.78125q-1.484375 1.84375 -3.75 1.84375q-1.9375 0 -3.234375 -1.296875q-1.28125 -1.3125 -1.28125 -3.28125q0 -1.921875 1.265625 -3.25q1.28125 -1.34375 3.125 -1.34375zm2.859375 3.921875q0 -1.296875 -0.78125 -2.046875q-0.78125 -0.75 -2.0625 -0.75q-1.140625 0 -2.078125 0.828125q-0.9375 0.828125 -0.984375 1.96875l5.90625 0zm7.685364 -3.921875q1.96875 0 3.265625 1.515625l-1.015625 0.765625q-0.796875 -1.15625 -2.21875 -1.15625q-1.453125 0 -2.359375 0.96875q-0.890625 0.96875 -0.890625 2.5q0 1.5625 0.890625 2.515625q0.90625 0.953125 2.296875 0.953125q1.5 0 2.28125 -1.15625l1.015625 0.765625q-1.25 1.5 -3.3125 1.5q-2.015625 0 -3.265625 -1.296875q-1.25 -1.3125 -1.25 -3.28125q0 -2.015625 1.265625 -3.296875q1.28125 -1.296875 3.296875 -1.296875zm6.8829346 -2.234375l0 2.453125l2.515625 0l0 1.125l-2.515625 0l0 5.21875q0 0.71875 0.265625 1.109375q0.265625 0.390625 1.0 0.390625q0.640625 0 1.265625 -0.34375l0.0625 1.140625q-0.734375 0.3125 -1.671875 0.3125q-1.015625 0 -1.59375 -0.59375q-0.5625 -0.59375 -0.5625 -1.65625l0 -5.578125l-1.84375 0l0 -1.125l1.84375 0l0 -2.453125l1.234375 0zm8.131378 2.234375q1.921875 0 3.0625 1.265625q1.140625 1.25 1.140625 3.28125l0 0.375l-7.28125 0q0.140625 1.359375 1.03125 2.25q0.90625 0.890625 2.171875 0.890625q0.84375 0 1.59375 -0.40625q0.765625 -0.40625 1.203125 -1.109375l0.953125 0.78125q-1.484375 1.84375 -3.75 1.84375q-1.9375 0 -3.234375 -1.296875q-1.28125 -1.3125 -1.28125 -3.28125q0 -1.921875 1.265625 -3.25q1.28125 -1.34375 3.125 -1.34375zm2.859375 3.921875q0 -1.296875 -0.78125 -2.046875q-0.78125 -0.75 -2.0625 -0.75q-1.140625 0 -2.078125 0.828125q-0.9375 0.828125 -0.984375 1.96875l5.90625 0zm12.2948 -9.078125l0 14.109375l-1.234375 0l0 -1.453125l-0.046875 0q-0.546875 0.796875 -1.484375 1.234375q-0.9375 0.4375 -1.90625 0.4375q-2.03125 0 -3.34375 -1.3125q-1.296875 -1.328125 -1.296875 -3.265625q0 -1.953125 1.296875 -3.265625q1.3125 -1.328125 3.34375 -1.328125q1.015625 0 1.9375 0.453125q0.921875 0.4375 1.453125 1.21875l0.046875 0l0 -6.828125l1.234375 0zm-7.96875 9.75q0 1.546875 0.921875 2.515625q0.9375 0.953125 2.375 0.953125q1.5 0 2.484375 -1.0q1.0 -1.015625 1.0 -2.46875q0 -1.46875 -1.0 -2.46875q-0.984375 -1.0 -2.5 -1.0q-1.421875 0 -2.359375 0.984375q-0.921875 0.96875 -0.921875 2.484375zm19.194763 -8.734375q-1.421875 2.34375 -1.953125 3.984375q-0.515625 1.640625 -0.515625 3.734375q0 1.9375 0.4375 3.515625q0.4375 1.5625 1.953125 4.09375l-0.984375 0.75q-1.25 -1.75 -1.953125 -3.953125q-0.6875 -2.21875 -0.6875 -4.40625q0 -2.203125 0.703125 -4.375q0.703125 -2.171875 2.015625 -3.984375l0.984375 0.640625zm6.647522 -0.109375l0 13.203125l-1.34375 0l0 -11.53125l-2.390625 2.09375l-0.828125 -1.015625l3.359375 -2.75l1.203125 0zm11.060364 0l-3.609375 5.671875l0.046875 0.03125q0.671875 -0.453125 1.828125 -0.453125q1.734375 0 2.859375 1.171875q1.125 1.171875 1.171875 2.921875q0 1.828125 -1.234375 2.953125q-1.21875 1.109375 -3.0625 1.125q-1.859375 0 -3.0625 -1.140625q-1.203125 -1.15625 -1.234375 -2.953125q0 -1.046875 0.328125 -1.9375q0.34375 -0.90625 1.390625 -2.546875l2.984375 -4.84375l1.59375 0zm-4.953125 9.34375q0 1.234375 0.8125 2.03125q0.828125 0.796875 2.140625 0.828125q1.28125 0 2.109375 -0.796875q0.84375 -0.8125 0.84375 -2.0625q0 -1.234375 -0.8125 -2.046875q-0.796875 -0.8125 -2.15625 -0.8125q-1.25 0 -2.09375 0.78125q-0.828125 0.78125 -0.84375 2.078125zm9.357239 -9.875q1.265625 1.8125 1.9375 3.984375q0.6875 2.171875 0.6875 4.375q0 2.234375 -0.703125 4.390625q-0.703125 2.15625 -2.0 3.96875l-0.984375 -0.640625q1.453125 -2.4375 1.953125 -4.0625q0.5 -1.640625 0.5 -3.65625q0 -2.015625 -0.46875 -3.578125q-0.46875 -1.5625 -1.921875 -4.03125l1.0 -0.75z" fill-rule="nonzero"/><path fill="#000000" fill-opacity="0.0" d="m480.0 127.57874l0 39.338585" fill-rule="evenodd"/><path stroke="#595959" stroke-width="1.0" stroke-linejoin="round" stroke-linecap="butt" d="m480.0 127.57874l0 33.338585" fill-rule="evenodd"/><path fill="#595959" stroke="#595959" stroke-width="1.0" stroke-linecap="butt" d="m478.34827 160.91733l1.6517334 4.538086l1.6517334 -4.538086z" fill-rule="evenodd"/><path fill="#000000" fill-opacity="0.0" d="m480.0 208.93701l0 39.338577" fill-rule="evenodd"/><path stroke="#595959" stroke-width="1.0" stroke-linejoin="round" stroke-linecap="butt" d="m480.0 208.93701l0 33.338577" fill-rule="evenodd"/><path fill="#595959" stroke="#595959" stroke-width="1.0" stroke-linecap="butt" d="m478.34827 242.27559l1.6517334 4.538101l1.6517334 -4.538101z" fill-rule="evenodd"/><path fill="#000000" fill-opacity="0.0" d="m480.0 290.29398l0 39.338562" fill-rule="evenodd"/><path stroke="#595959" stroke-width="1.0" stroke-linejoin="round" stroke-linecap="butt" d="m480.0 290.29398l0 33.338562" fill-rule="evenodd"/><path fill="#595959" stroke="#595959" stroke-width="1.0" stroke-linecap="butt" d="m478.34827 323.63254l1.6517334 4.5381165l1.6517334 -4.5381165z" fill-rule="evenodd"/><path fill="#000000" fill-opacity="0.0" d="m480.0 371.6509l0 39.338593" fill-rule="evenodd"/><path stroke="#595959" stroke-width="1.0" stroke-linejoin="round" stroke-linecap="butt" d="m480.0 371.6509l0 33.338593" fill-rule="evenodd"/><path fill="#595959" stroke="#595959" stroke-width="1.0" stroke-linecap="butt" d="m478.34827 404.9895l1.6517334 4.538086l1.6517334 -4.538086z" fill-rule="evenodd"/><path fill="#000000" fill-opacity="0.0" d="m480.0 453.00787l0 39.338593" fill-rule="evenodd"/><path stroke="#595959" stroke-width="1.0" stroke-linejoin="round" stroke-linecap="butt" d="m480.0 453.00787l0 33.338593" fill-rule="evenodd"/><path fill="#595959" stroke="#595959" stroke-width="1.0" stroke-linecap="butt" d="m478.34827 486.34647l1.6517334 4.538086l1.6517334 -4.538086z" fill-rule="evenodd"/><path fill="#000000" fill-opacity="0.0" d="m480.0 534.3648l0 39.338623" fill-rule="evenodd"/><path stroke="#595959" stroke-width="1.0" stroke-linejoin="round" stroke-linecap="butt" d="m480.0 534.3648l0 33.338623" fill-rule="evenodd"/><path fill="#595959" stroke="#595959" stroke-width="1.0" stroke-linecap="butt" d="m478.34827 567.7034l1.6517334 4.538086l1.6517334 -4.538086z" fill-rule="evenodd"/><path fill="#000000" fill-opacity="0.0" d="m480.0 615.7218l0 39.338562" fill-rule="evenodd"/><path stroke="#595959" stroke-width="1.0" stroke-linejoin="round" stroke-linecap="butt" d="m480.0 615.7218l0 33.338562" fill-rule="evenodd"/><path fill="#595959" stroke="#595959" stroke-width="1.0" stroke-linecap="butt" d="m478.34827 649.06036l1.6517334 4.538086l1.6517334 -4.538086z" fill-rule="evenodd"/><path fill="#000000" fill-opacity="0.0" d="m480.0 697.07874l0 39.338562" fill-rule="evenodd"/><path stroke="#595959" stroke-width="1.0" stroke-linejoin="round" stroke-linecap="butt" d="m480.0 697.07874l0 33.338562" fill-rule="evenodd"/><path fill="#595959" stroke="#595959" stroke-width="1.0" stroke-linecap="butt" d="m478.34827 730.4173l1.6517334 4.538147l1.6517334 -4.538147z" fill-rule="evenodd"/></g></svg>